0
SECTION
2
HEADER
9
$INSUNITS
70
1
9
$ACADVER
1
AC1014
9
$HANDSEED
5
FFFF
0
ENDSEC
0
SECTION
2
TABLES
0
TABLE
2
VPORT
5
8
100
AcDbSymbolTable
0
ENDTAB
0
TABLE
2
LTYPE
5
5
100
AcDbSymbolTable
0
LTYPE
5
14
100
AcDbSymbolTableRecord
100
AcDbLinetypeTableRecord
2
BYBLOCK
70
0
0
LTYPE
5
15
100
AcDbSymbolTableRecord
100
AcDbLinetypeTableRecord
2
BYLAYER
70
0
0
ENDTAB
0
TABLE
2
LAYER
5
2
100
AcDbSymbolTable
70
2
0
LAYER
5
50
100
AcDbSymbolTableRecord
100
AcDbLayerTableRecord
2
0
70
0
6
CONTINUOUS
0
ENDTAB
0
TABLE
2
STYLE
5
3
100
AcDbSymbolTable
70
1
0
STYLE
5
11
100
AcDbSymbolTableRecord
100
AcDbTextStyleTableRecord
2
STANDARD
70
0
0
ENDTAB
0
TABLE
2
VIEW
5
6
100
AcDbSymbolTable
70
0
0
ENDTAB
0
TABLE
2
UCS
5
7
100
AcDbSymbolTable
70
0
0
ENDTAB
0
TABLE
2
APPID
5
9
100
AcDbSymbolTable
70
2
0
APPID
5
12
100
AcDbSymbolTableRecord
100
AcDbRegAppTableRecord
2
ACAD
70
0
0
ENDTAB
0
TABLE
2
DIMSTYLE
5
A
100
AcDbSymbolTable
70
1
0
ENDTAB
0
TABLE
2
BLOCK_RECORD
5
1
100
AcDbSymbolTable
70
1
0
BLOCK_RECORD
5
1F
100
AcDbSymbolTableRecord
100
AcDbBlockTableRecord
2
*MODEL_SPACE
0
BLOCK_RECORD
5
1B
100
AcDbSymbolTableRecord
100
AcDbBlockTableRecord
2
*PAPER_SPACE
0
ENDTAB
0
ENDSEC
0
SECTION
2
BLOCKS
0
BLOCK
5
20
100
AcDbEntity
100
AcDbBlockBegin
2
*MODEL_SPACE
0
ENDBLK
5
21
100
AcDbEntity
100
AcDbBlockEnd
0
BLOCK
5
1C
100
AcDbEntity
100
AcDbBlockBegin
2
*PAPER_SPACE
0
ENDBLK
5
1D
100
AcDbEntity
100
AcDbBlockEnd
0
ENDSEC
0
SECTION
2
ENTITIES
0
CIRCLE
5
100
100
AcDbEntity
8
0
100
AcDbCircle
10
0.31611492926667911
20
-4.0087674788206709
30
0
40
0.062992125984252009
210
0
220
0
230
1
0
CIRCLE
5
101
100
AcDbEntity
8
0
100
AcDbCircle
10
0.31611492926667928
20
-0.30798007711163222
30
0
40
0.062992125984251829
210
0
220
0
230
1
0
LINE
5
102
100
AcDbEntity
8
0
100
AcDbLine
10
0.17899999999999999
20
-6.1789999999999994
30
0
11
4.3818999999999999
21
-6.1789999999999994
31
0
0
CIRCLE
5
103
100
AcDbEntity
8
0
100
AcDbCircle
10
0.3161149292666795
20
-6.3104398855260753
30
0
40
0.062992125984251829
210
0
220
0
230
1
0
CIRCLE
5
104
100
AcDbEntity
8
0
100
AcDbCircle
10
0.31611492926667911
20
-10.011227287235096
30
0
40
0.062992125984252009
210
0
220
0
230
1
0
CIRCLE
5
105
100
AcDbEntity
8
0
100
AcDbCircle
10
1.7840272588973192
20
-5.6745014656832682
30
0
40
0.062499999999999799
210
0
220
0
230
1
0
CIRCLE
5
106
100
AcDbEntity
8
0
100
AcDbCircle
10
1.7840272588973198
20
-4.5745014656832712
30
0
40
0.062499999999999799
210
0
220
0
230
1
0
CIRCLE
5
107
100
AcDbEntity
8
0
100
AcDbCircle
10
3.8352083608973135
20
-4.3745014656832719
30
0
40
0.062499999999999986
210
0
220
0
230
1
0
CIRCLE
5
108
100
AcDbEntity
8
0
100
AcDbCircle
10
4.2334377638575642
20
-4.0087674788206735
30
0
40
0.062992125984251982
210
0
220
0
230
1
0
CIRCLE
5
109
100
AcDbEntity
8
0
100
AcDbCircle
10
4.2334377638575669
20
-0.30798007711163566
30
0
40
0.062992125984251857
210
0
220
0
230
1
0
CIRCLE
5
110
100
AcDbEntity
8
0
100
AcDbCircle
10
4.2334377638575491
20
-6.3104398855260797
30
0
40
0.062992125984251857
210
0
220
0
230
1
0
CIRCLE
5
111
100
AcDbEntity
8
0
100
AcDbCircle
10
4.2334377638575464
20
-10.011227287235101
30
0
40
0.062992125984251982
210
0
220
0
230
1
0
CIRCLE
5
112
100
AcDbEntity
8
0
100
AcDbCircle
10
3.8352083608973135
20
-10.37450146568327
30
0
40
0.062499999999999986
210
0
220
0
230
1
0
CIRCLE
5
113
100
AcDbEntity
8
0
100
AcDbCircle
10
1.7840272588973198
20
-10.574501465683271
30
0
40
0.062499999999999799
210
0
220
0
230
1
0
CIRCLE
5
114
100
AcDbEntity
8
0
100
AcDbCircle
10
1.7840272588973192
20
-11.674501465683267
30
0
40
0.062499999999999799
210
0
220
0
230
1
0
LWPOLYLINE
5
115
100
AcDbEntity
8
0
100
AcDbPolyline
90
4
70
1
43
0.0
10
0.38442197423056912
20
-4.0920152200082383
10
1.1844219742305691
20
-4.0920152200082383
10
1.1844219742305691
20
-4.1770152200082391
10
0.38442197423056923
20
-4.1770152200082391
0
LWPOLYLINE
5
116
100
AcDbEntity
8
0
100
AcDbPolyline
90
4
70
1
43
0.0
10
0.39158227140452134
20
-10.177621921043292
10
0.39158227140452134
20
-10.0912972340561
10
1.1808846491228142
20
-10.0912972340561
10
1.1808846491228144
20
-10.177621921043292
0
LWPOLYLINE
5
117
100
AcDbEntity
8
0
100
AcDbPolyline
90
4
70
1
43
0.0
10
0.17899999999999999
20
-0.17899999999999983
10
4.3819000000000008
20
-0.17899999999999983
10
4.3818999999999999
20
-12.020999999999997
10
0.17899999999999999
20
-12.020999999999997
0
LWPOLYLINE
5
118
100
AcDbEntity
8
0
100
AcDbPolyline
90
4
70
1
43
0.0
10
4.5944822714045204
20
-10.177621921043292
10
4.5944822714045204
20
-10.0912972340561
10
5.3837846491228136
20
-10.0912972340561
10
5.3837846491228136
20
-10.177621921043292
0
CIRCLE
5
119
100
AcDbEntity
8
0
100
AcDbCircle
10
8.0381083608973132
20
-4.3745014656832719
30
0
40
0.062499999999999986
210
0
220
0
230
1
0
CIRCLE
5
120
100
AcDbEntity
8
0
100
AcDbCircle
10
4.519014929266679
20
-0.30798007711163222
30
0
40
0.062992125984251829
210
0
220
0
230
1
0
CIRCLE
5
121
100
AcDbEntity
8
0
100
AcDbCircle
10
8.4363377638575621
20
-4.0087674788206735
30
0
40
0.062992125984251982
210
0
220
0
230
1
0
LWPOLYLINE
5
122
100
AcDbEntity
8
0
100
AcDbPolyline
90
4
70
1
43
0.0
10
4.5873219742305684
20
-4.1770152200082391
10
4.5873219742305675
20
-4.0920152200082383
10
5.3873219742305682
20
-4.0920152200082383
10
5.3873219742305682
20
-4.1770152200082391
0
CIRCLE
5
123
100
AcDbEntity
8
0
100
AcDbCircle
10
5.9869272588973184
20
-11.674501465683267
30
0
40
0.062499999999999799
210
0
220
0
230
1
0
LWPOLYLINE
5
124
100
AcDbEntity
8
0
100
AcDbPolyline
90
4
70
1
43
0.0
10
8.5847999999999978
20
-12.020999999999997
10
4.381899999999999
20
-12.020999999999997
10
4.381899999999999
20
-0.17899999999999983
10
8.5847999999999995
20
-0.17899999999999983
0
CIRCLE
5
125
100
AcDbEntity
8
0
100
AcDbCircle
10
4.5190149292666781
20
-4.0087674788206709
30
0
40
0.062992125984252009
210
0
220
0
230
1
0
CIRCLE
5
126
100
AcDbEntity
8
0
100
AcDbCircle
10
8.4363377638575496
20
-6.3104398855260797
30
0
40
0.062992125984251857
210
0
220
0
230
1
0
CIRCLE
5
127
100
AcDbEntity
8
0
100
AcDbCircle
10
8.0381083608973132
20
-10.37450146568327
30
0
40
0.062499999999999986
210
0
220
0
230
1
0
CIRCLE
5
128
100
AcDbEntity
8
0
100
AcDbCircle
10
5.9869272588973192
20
-10.574501465683271
30
0
40
0.062499999999999799
210
0
220
0
230
1
0
CIRCLE
5
129
100
AcDbEntity
8
0
100
AcDbCircle
10
8.4363377638575656
20
-0.30798007711163566
30
0
40
0.062992125984251857
210
0
220
0
230
1
0
CIRCLE
5
130
100
AcDbEntity
8
0
100
AcDbCircle
10
5.9869272588973184
20
-5.6745014656832682
30
0
40
0.062499999999999799
210
0
220
0
230
1
0
CIRCLE
5
131
100
AcDbEntity
8
0
100
AcDbCircle
10
4.519014929266679
20
-6.3104398855260753
30
0
40
0.062992125984251829
210
0
220
0
230
1
0
CIRCLE
5
132
100
AcDbEntity
8
0
100
AcDbCircle
10
4.5190149292666781
20
-10.011227287235096
30
0
40
0.062992125984252009
210
0
220
0
230
1
0
LINE
5
133
100
AcDbEntity
8
0
100
AcDbLine
10
4.381899999999999
20
-6.1789999999999994
30
0
11
8.5847999999999978
21
-6.1789999999999994
31
0
0
CIRCLE
5
134
100
AcDbEntity
8
0
100
AcDbCircle
10
8.4363377638575461
20
-10.011227287235101
30
0
40
0.062992125984251982
210
0
220
0
230
1
0
CIRCLE
5
135
100
AcDbEntity
8
0
100
AcDbCircle
10
5.9869272588973192
20
-4.5745014656832712
30
0
40
0.062499999999999799
210
0
220
0
230
1
0
CIRCLE
5
136
100
AcDbEntity
8
0
100
AcDbCircle
10
8.7219149292666778
20
-0.30798007711163222
30
0
40
0.062992125984251829
210
0
220
0
230
1
0
LINE
5
137
100
AcDbEntity
8
0
100
AcDbLine
10
8.5847999999999978
20
-6.1789999999999994
30
0
11
12.787699999999997
21
-6.1789999999999994
31
0
0
LWPOLYLINE
5
138
100
AcDbEntity
8
0
100
AcDbPolyline
90
4
70
1
43
0.0
10
8.7902219742305672
20
-4.1770152200082391
10
8.7902219742305672
20
-4.0920152200082383
10
9.5902219742305661
20
-4.0920152200082383
10
9.5902219742305661
20
-4.1770152200082391
0
CIRCLE
5
139
100
AcDbEntity
8
0
100
AcDbCircle
10
10.189827258897317
20
-5.6745014656832682
30
0
40
0.062499999999999799
210
0
220
0
230
1
0
CIRCLE
5
140
100
AcDbEntity
8
0
100
AcDbCircle
10
12.241008360897311
20
-4.3745014656832719
30
0
40
0.062499999999999986
210
0
220
0
230
1
0
LINE
5
141
100
AcDbEntity
8
0
100
AcDbLine
10
8.5847999999999978
20
-0.17899999999999983
30
0
11
12.787699999999999
21
-0.17899999999999983
31
0
0
CIRCLE
5
142
100
AcDbEntity
8
0
100
AcDbCircle
10
8.7219149292666778
20
-4.0087674788206709
30
0
40
0.062992125984252009
210
0
220
0
230
1
0
CIRCLE
5
143
100
AcDbEntity
8
0
100
AcDbCircle
10
10.189827258897319
20
-4.5745014656832712
30
0
40
0.062499999999999799
210
0
220
0
230
1
0
CIRCLE
5
144
100
AcDbEntity
8
0
100
AcDbCircle
10
12.639237763857562
20
-4.0087674788206735
30
0
40
0.062992125984251982
210
0
220
0
230
1
0
CIRCLE
5
145
100
AcDbEntity
8
0
100
AcDbCircle
10
12.639237763857563
20
-0.30798007711163566
30
0
40
0.062992125984251857
210
0
220
0
230
1
0
LINE
5
146
100
AcDbEntity
8
0
100
AcDbLine
10
12.787699999999999
20
-0.17899999999999983
30
0
11
12.787699999999997
21
-6.1789999999999994
31
0
0
ENDSEC
0
SECTION
2
OBJECTS
0
DICTIONARY
5
C
100
AcDbDictionary
3
ACAD_GROUP
350
D
3
ACAD_MLINESTYLE
350
17
0
DICTIONARY
5
D
100
AcDbDictionary
0
DICTIONARY
5
1A
330
C
100
AcDbDictionary
0
DICTIONARY
5
17
100
AcDbDictionary
0
ENDSEC
0
EOF
