M48
; DRILL file {KiCad 8.0.8} date 2026-02-26T01:55:18-0500
; FORMAT={-:-/ absolute / metric / decimal}
; #@! TF.CreationDate,2026-02-26T01:55:18-05:00
; #@! TF.GenerationSoftware,Kicad,Pcbnew,8.0.8
; #@! TF.FileFunction,Plated,1,2,PTH
FMAT,2
METRIC
; #@! TA.AperFunction,Plated,PTH,ViaDrill
T1C0.400
; #@! TA.AperFunction,Plated,PTH,ComponentDrill
T2C1.000
; #@! TA.AperFunction,Plated,PTH,ComponentDrill
T3C1.000
%
G90
G05
T1
X115.88Y-79.558
X134.29Y-82.982
X136.83Y-82.982
X141.402Y-79.426
X159.69Y-82.982
X162.23Y-82.982
T3
X115.24Y-61.9
X115.24Y-74.6
X117.78Y-61.9
X117.78Y-74.6
X118.796Y-49.2
X120.32Y-61.9
X120.32Y-74.6
X120.32Y-83.236
X121.336Y-49.2
X122.86Y-61.9
X122.86Y-74.6
X122.86Y-83.236
X123.876Y-49.2
X125.4Y-61.9
X125.4Y-74.6
X125.4Y-83.236
X126.416Y-49.2
X127.94Y-61.9
X127.94Y-74.6
X127.94Y-83.236
X127.94Y-97.46
X128.956Y-49.2
X130.48Y-61.9
X130.48Y-74.6
X130.48Y-97.46
X131.496Y-49.2
X133.02Y-61.9
X133.02Y-74.6
X133.02Y-97.46
X134.036Y-49.2
X135.56Y-97.46
X136.576Y-49.2
X138.1Y-97.46
X139.116Y-49.2
X140.64Y-61.9
X140.64Y-74.6
X140.64Y-97.46
X141.656Y-49.2
X143.18Y-61.9
X143.18Y-74.6
X143.18Y-97.46
X145.72Y-49.2
X145.72Y-61.9
X145.72Y-74.6
X145.72Y-83.236
X145.72Y-97.46
X148.26Y-49.2
X148.26Y-61.9
X148.26Y-74.6
X148.26Y-83.236
X150.8Y-49.2
X150.8Y-61.9
X150.8Y-74.6
X150.8Y-83.236
X150.8Y-97.46
X153.34Y-49.2
X153.34Y-61.9
X153.34Y-74.6
X153.34Y-83.236
X153.34Y-97.46
X155.88Y-49.2
X155.88Y-61.9
X155.88Y-74.6
X155.88Y-97.46
X158.42Y-49.2
X158.42Y-61.9
X158.42Y-74.6
X158.42Y-97.46
X160.96Y-49.2
X160.96Y-97.46
X163.5Y-49.2
X163.5Y-97.46
T2
G00X105.11Y-72.108
M15
G01X102.61Y-72.108
M16
G05
G00X105.51Y-69.308
M15
G01X108.01Y-69.308
M16
G05
G00X110.16Y-73.858
M15
G01X110.16Y-76.358
M16
G05
M30
