%TF.GenerationSoftware,KiCad,Pcbnew,8.0.8*%
%TF.CreationDate,2026-03-12T22:53:48-04:00*%
%TF.ProjectId,Platform Arduino Shield,506c6174-666f-4726-9d20-41726475696e,rev?*%
%TF.SameCoordinates,Original*%
%TF.FileFunction,Legend,Top*%
%TF.FilePolarity,Positive*%
%FSLAX46Y46*%
G04 Gerber Fmt 4.6, Leading zero omitted, Abs format (unit mm)*
G04 Created by KiCad (PCBNEW 8.0.8) date 2026-03-12 22:53:48*
%MOMM*%
%LPD*%
G01*
G04 APERTURE LIST*
%ADD10C,0.150000*%
%ADD11C,0.120000*%
G04 APERTURE END LIST*
D10*
X145974000Y-64186000D02*
X151054000Y-64186000D01*
X151054000Y-69266000D01*
X145974000Y-69266000D01*
X145974000Y-64186000D01*
X120828000Y-64186000D02*
X125908000Y-64186000D01*
X125908000Y-69266000D01*
X120828000Y-69266000D01*
X120828000Y-64186000D01*
X155502180Y-56197792D02*
X156502180Y-56197792D01*
X156502180Y-56197792D02*
X155787895Y-56531125D01*
X155787895Y-56531125D02*
X156502180Y-56864458D01*
X156502180Y-56864458D02*
X155502180Y-56864458D01*
X155549800Y-57293030D02*
X155502180Y-57435887D01*
X155502180Y-57435887D02*
X155502180Y-57673982D01*
X155502180Y-57673982D02*
X155549800Y-57769220D01*
X155549800Y-57769220D02*
X155597419Y-57816839D01*
X155597419Y-57816839D02*
X155692657Y-57864458D01*
X155692657Y-57864458D02*
X155787895Y-57864458D01*
X155787895Y-57864458D02*
X155883133Y-57816839D01*
X155883133Y-57816839D02*
X155930752Y-57769220D01*
X155930752Y-57769220D02*
X155978371Y-57673982D01*
X155978371Y-57673982D02*
X156025990Y-57483506D01*
X156025990Y-57483506D02*
X156073609Y-57388268D01*
X156073609Y-57388268D02*
X156121228Y-57340649D01*
X156121228Y-57340649D02*
X156216466Y-57293030D01*
X156216466Y-57293030D02*
X156311704Y-57293030D01*
X156311704Y-57293030D02*
X156406942Y-57340649D01*
X156406942Y-57340649D02*
X156454561Y-57388268D01*
X156454561Y-57388268D02*
X156502180Y-57483506D01*
X156502180Y-57483506D02*
X156502180Y-57721601D01*
X156502180Y-57721601D02*
X156454561Y-57864458D01*
X155502180Y-58816839D02*
X155502180Y-58245411D01*
X155502180Y-58531125D02*
X156502180Y-58531125D01*
X156502180Y-58531125D02*
X156359323Y-58435887D01*
X156359323Y-58435887D02*
X156264085Y-58340649D01*
X156264085Y-58340649D02*
X156216466Y-58245411D01*
X147628180Y-57102553D02*
X148104371Y-56769220D01*
X147628180Y-56531125D02*
X148628180Y-56531125D01*
X148628180Y-56531125D02*
X148628180Y-56912077D01*
X148628180Y-56912077D02*
X148580561Y-57007315D01*
X148580561Y-57007315D02*
X148532942Y-57054934D01*
X148532942Y-57054934D02*
X148437704Y-57102553D01*
X148437704Y-57102553D02*
X148294847Y-57102553D01*
X148294847Y-57102553D02*
X148199609Y-57054934D01*
X148199609Y-57054934D02*
X148151990Y-57007315D01*
X148151990Y-57007315D02*
X148104371Y-56912077D01*
X148104371Y-56912077D02*
X148104371Y-56531125D01*
X147675800Y-57483506D02*
X147628180Y-57626363D01*
X147628180Y-57626363D02*
X147628180Y-57864458D01*
X147628180Y-57864458D02*
X147675800Y-57959696D01*
X147675800Y-57959696D02*
X147723419Y-58007315D01*
X147723419Y-58007315D02*
X147818657Y-58054934D01*
X147818657Y-58054934D02*
X147913895Y-58054934D01*
X147913895Y-58054934D02*
X148009133Y-58007315D01*
X148009133Y-58007315D02*
X148056752Y-57959696D01*
X148056752Y-57959696D02*
X148104371Y-57864458D01*
X148104371Y-57864458D02*
X148151990Y-57673982D01*
X148151990Y-57673982D02*
X148199609Y-57578744D01*
X148199609Y-57578744D02*
X148247228Y-57531125D01*
X148247228Y-57531125D02*
X148342466Y-57483506D01*
X148342466Y-57483506D02*
X148437704Y-57483506D01*
X148437704Y-57483506D02*
X148532942Y-57531125D01*
X148532942Y-57531125D02*
X148580561Y-57578744D01*
X148580561Y-57578744D02*
X148628180Y-57673982D01*
X148628180Y-57673982D02*
X148628180Y-57912077D01*
X148628180Y-57912077D02*
X148580561Y-58054934D01*
X148628180Y-58340649D02*
X148628180Y-58912077D01*
X147628180Y-58626363D02*
X148628180Y-58626363D01*
X153216180Y-86128588D02*
X153216180Y-85557160D01*
X153216180Y-85842874D02*
X154216180Y-85842874D01*
X154216180Y-85842874D02*
X154073323Y-85747636D01*
X154073323Y-85747636D02*
X153978085Y-85652398D01*
X153978085Y-85652398D02*
X153930466Y-85557160D01*
X153739990Y-86890493D02*
X153692371Y-87033350D01*
X153692371Y-87033350D02*
X153644752Y-87080969D01*
X153644752Y-87080969D02*
X153549514Y-87128588D01*
X153549514Y-87128588D02*
X153406657Y-87128588D01*
X153406657Y-87128588D02*
X153311419Y-87080969D01*
X153311419Y-87080969D02*
X153263800Y-87033350D01*
X153263800Y-87033350D02*
X153216180Y-86938112D01*
X153216180Y-86938112D02*
X153216180Y-86557160D01*
X153216180Y-86557160D02*
X154216180Y-86557160D01*
X154216180Y-86557160D02*
X154216180Y-86890493D01*
X154216180Y-86890493D02*
X154168561Y-86985731D01*
X154168561Y-86985731D02*
X154120942Y-87033350D01*
X154120942Y-87033350D02*
X154025704Y-87080969D01*
X154025704Y-87080969D02*
X153930466Y-87080969D01*
X153930466Y-87080969D02*
X153835228Y-87033350D01*
X153835228Y-87033350D02*
X153787609Y-86985731D01*
X153787609Y-86985731D02*
X153739990Y-86890493D01*
X153739990Y-86890493D02*
X153739990Y-86557160D01*
X142595800Y-55578744D02*
X142548180Y-55721601D01*
X142548180Y-55721601D02*
X142548180Y-55959696D01*
X142548180Y-55959696D02*
X142595800Y-56054934D01*
X142595800Y-56054934D02*
X142643419Y-56102553D01*
X142643419Y-56102553D02*
X142738657Y-56150172D01*
X142738657Y-56150172D02*
X142833895Y-56150172D01*
X142833895Y-56150172D02*
X142929133Y-56102553D01*
X142929133Y-56102553D02*
X142976752Y-56054934D01*
X142976752Y-56054934D02*
X143024371Y-55959696D01*
X143024371Y-55959696D02*
X143071990Y-55769220D01*
X143071990Y-55769220D02*
X143119609Y-55673982D01*
X143119609Y-55673982D02*
X143167228Y-55626363D01*
X143167228Y-55626363D02*
X143262466Y-55578744D01*
X143262466Y-55578744D02*
X143357704Y-55578744D01*
X143357704Y-55578744D02*
X143452942Y-55626363D01*
X143452942Y-55626363D02*
X143500561Y-55673982D01*
X143500561Y-55673982D02*
X143548180Y-55769220D01*
X143548180Y-55769220D02*
X143548180Y-56007315D01*
X143548180Y-56007315D02*
X143500561Y-56150172D01*
X143548180Y-56435887D02*
X143548180Y-57007315D01*
X142548180Y-56721601D02*
X143548180Y-56721601D01*
X143071990Y-57340649D02*
X143071990Y-57673982D01*
X142548180Y-57816839D02*
X142548180Y-57340649D01*
X142548180Y-57340649D02*
X143548180Y-57340649D01*
X143548180Y-57340649D02*
X143548180Y-57816839D01*
X142548180Y-58245411D02*
X143548180Y-58245411D01*
X143548180Y-58245411D02*
X143548180Y-58626363D01*
X143548180Y-58626363D02*
X143500561Y-58721601D01*
X143500561Y-58721601D02*
X143452942Y-58769220D01*
X143452942Y-58769220D02*
X143357704Y-58816839D01*
X143357704Y-58816839D02*
X143214847Y-58816839D01*
X143214847Y-58816839D02*
X143119609Y-58769220D01*
X143119609Y-58769220D02*
X143071990Y-58721601D01*
X143071990Y-58721601D02*
X143024371Y-58626363D01*
X143024371Y-58626363D02*
X143024371Y-58245411D01*
X130102180Y-56197792D02*
X131102180Y-56197792D01*
X131102180Y-56197792D02*
X130387895Y-56531125D01*
X130387895Y-56531125D02*
X131102180Y-56864458D01*
X131102180Y-56864458D02*
X130102180Y-56864458D01*
X130149800Y-57293030D02*
X130102180Y-57435887D01*
X130102180Y-57435887D02*
X130102180Y-57673982D01*
X130102180Y-57673982D02*
X130149800Y-57769220D01*
X130149800Y-57769220D02*
X130197419Y-57816839D01*
X130197419Y-57816839D02*
X130292657Y-57864458D01*
X130292657Y-57864458D02*
X130387895Y-57864458D01*
X130387895Y-57864458D02*
X130483133Y-57816839D01*
X130483133Y-57816839D02*
X130530752Y-57769220D01*
X130530752Y-57769220D02*
X130578371Y-57673982D01*
X130578371Y-57673982D02*
X130625990Y-57483506D01*
X130625990Y-57483506D02*
X130673609Y-57388268D01*
X130673609Y-57388268D02*
X130721228Y-57340649D01*
X130721228Y-57340649D02*
X130816466Y-57293030D01*
X130816466Y-57293030D02*
X130911704Y-57293030D01*
X130911704Y-57293030D02*
X131006942Y-57340649D01*
X131006942Y-57340649D02*
X131054561Y-57388268D01*
X131054561Y-57388268D02*
X131102180Y-57483506D01*
X131102180Y-57483506D02*
X131102180Y-57721601D01*
X131102180Y-57721601D02*
X131054561Y-57864458D01*
X130102180Y-58816839D02*
X130102180Y-58245411D01*
X130102180Y-58531125D02*
X131102180Y-58531125D01*
X131102180Y-58531125D02*
X130959323Y-58435887D01*
X130959323Y-58435887D02*
X130864085Y-58340649D01*
X130864085Y-58340649D02*
X130816466Y-58245411D01*
X146500942Y-85557160D02*
X146548561Y-85604779D01*
X146548561Y-85604779D02*
X146596180Y-85700017D01*
X146596180Y-85700017D02*
X146596180Y-85938112D01*
X146596180Y-85938112D02*
X146548561Y-86033350D01*
X146548561Y-86033350D02*
X146500942Y-86080969D01*
X146500942Y-86080969D02*
X146405704Y-86128588D01*
X146405704Y-86128588D02*
X146310466Y-86128588D01*
X146310466Y-86128588D02*
X146167609Y-86080969D01*
X146167609Y-86080969D02*
X145596180Y-85509541D01*
X145596180Y-85509541D02*
X145596180Y-86128588D01*
X146119990Y-86890493D02*
X146072371Y-87033350D01*
X146072371Y-87033350D02*
X146024752Y-87080969D01*
X146024752Y-87080969D02*
X145929514Y-87128588D01*
X145929514Y-87128588D02*
X145786657Y-87128588D01*
X145786657Y-87128588D02*
X145691419Y-87080969D01*
X145691419Y-87080969D02*
X145643800Y-87033350D01*
X145643800Y-87033350D02*
X145596180Y-86938112D01*
X145596180Y-86938112D02*
X145596180Y-86557160D01*
X145596180Y-86557160D02*
X146596180Y-86557160D01*
X146596180Y-86557160D02*
X146596180Y-86890493D01*
X146596180Y-86890493D02*
X146548561Y-86985731D01*
X146548561Y-86985731D02*
X146500942Y-87033350D01*
X146500942Y-87033350D02*
X146405704Y-87080969D01*
X146405704Y-87080969D02*
X146310466Y-87080969D01*
X146310466Y-87080969D02*
X146215228Y-87033350D01*
X146215228Y-87033350D02*
X146167609Y-86985731D01*
X146167609Y-86985731D02*
X146119990Y-86890493D01*
X146119990Y-86890493D02*
X146119990Y-86557160D01*
X113544779Y-94027819D02*
X113544779Y-93361152D01*
X113544779Y-93456390D02*
X113592398Y-93408771D01*
X113592398Y-93408771D02*
X113687636Y-93361152D01*
X113687636Y-93361152D02*
X113830493Y-93361152D01*
X113830493Y-93361152D02*
X113925731Y-93408771D01*
X113925731Y-93408771D02*
X113973350Y-93504009D01*
X113973350Y-93504009D02*
X113973350Y-94027819D01*
X113973350Y-93504009D02*
X114020969Y-93408771D01*
X114020969Y-93408771D02*
X114116207Y-93361152D01*
X114116207Y-93361152D02*
X114259064Y-93361152D01*
X114259064Y-93361152D02*
X114354303Y-93408771D01*
X114354303Y-93408771D02*
X114401922Y-93504009D01*
X114401922Y-93504009D02*
X114401922Y-94027819D01*
X114878112Y-94027819D02*
X114878112Y-93361152D01*
X114878112Y-93456390D02*
X114925731Y-93408771D01*
X114925731Y-93408771D02*
X115020969Y-93361152D01*
X115020969Y-93361152D02*
X115163826Y-93361152D01*
X115163826Y-93361152D02*
X115259064Y-93408771D01*
X115259064Y-93408771D02*
X115306683Y-93504009D01*
X115306683Y-93504009D02*
X115306683Y-94027819D01*
X115306683Y-93504009D02*
X115354302Y-93408771D01*
X115354302Y-93408771D02*
X115449540Y-93361152D01*
X115449540Y-93361152D02*
X115592397Y-93361152D01*
X115592397Y-93361152D02*
X115687636Y-93408771D01*
X115687636Y-93408771D02*
X115735255Y-93504009D01*
X115735255Y-93504009D02*
X115735255Y-94027819D01*
X116211445Y-94027819D02*
X116211445Y-93027819D01*
X116211445Y-93408771D02*
X116306683Y-93361152D01*
X116306683Y-93361152D02*
X116497159Y-93361152D01*
X116497159Y-93361152D02*
X116592397Y-93408771D01*
X116592397Y-93408771D02*
X116640016Y-93456390D01*
X116640016Y-93456390D02*
X116687635Y-93551628D01*
X116687635Y-93551628D02*
X116687635Y-93837342D01*
X116687635Y-93837342D02*
X116640016Y-93932580D01*
X116640016Y-93932580D02*
X116592397Y-93980200D01*
X116592397Y-93980200D02*
X116497159Y-94027819D01*
X116497159Y-94027819D02*
X116306683Y-94027819D01*
X116306683Y-94027819D02*
X116211445Y-93980200D01*
X117259064Y-94027819D02*
X117163826Y-93980200D01*
X117163826Y-93980200D02*
X117116207Y-93932580D01*
X117116207Y-93932580D02*
X117068588Y-93837342D01*
X117068588Y-93837342D02*
X117068588Y-93551628D01*
X117068588Y-93551628D02*
X117116207Y-93456390D01*
X117116207Y-93456390D02*
X117163826Y-93408771D01*
X117163826Y-93408771D02*
X117259064Y-93361152D01*
X117259064Y-93361152D02*
X117401921Y-93361152D01*
X117401921Y-93361152D02*
X117497159Y-93408771D01*
X117497159Y-93408771D02*
X117544778Y-93456390D01*
X117544778Y-93456390D02*
X117592397Y-93551628D01*
X117592397Y-93551628D02*
X117592397Y-93837342D01*
X117592397Y-93837342D02*
X117544778Y-93932580D01*
X117544778Y-93932580D02*
X117497159Y-93980200D01*
X117497159Y-93980200D02*
X117401921Y-94027819D01*
X117401921Y-94027819D02*
X117259064Y-94027819D01*
X117878112Y-93361152D02*
X118259064Y-93361152D01*
X118020969Y-93027819D02*
X118020969Y-93884961D01*
X118020969Y-93884961D02*
X118068588Y-93980200D01*
X118068588Y-93980200D02*
X118163826Y-94027819D01*
X118163826Y-94027819D02*
X118259064Y-94027819D01*
X119354303Y-94027819D02*
X119354303Y-93027819D01*
X119354303Y-93027819D02*
X119735255Y-93027819D01*
X119735255Y-93027819D02*
X119830493Y-93075438D01*
X119830493Y-93075438D02*
X119878112Y-93123057D01*
X119878112Y-93123057D02*
X119925731Y-93218295D01*
X119925731Y-93218295D02*
X119925731Y-93361152D01*
X119925731Y-93361152D02*
X119878112Y-93456390D01*
X119878112Y-93456390D02*
X119830493Y-93504009D01*
X119830493Y-93504009D02*
X119735255Y-93551628D01*
X119735255Y-93551628D02*
X119354303Y-93551628D01*
X120497160Y-94027819D02*
X120401922Y-93980200D01*
X120401922Y-93980200D02*
X120354303Y-93884961D01*
X120354303Y-93884961D02*
X120354303Y-93027819D01*
X121306684Y-94027819D02*
X121306684Y-93504009D01*
X121306684Y-93504009D02*
X121259065Y-93408771D01*
X121259065Y-93408771D02*
X121163827Y-93361152D01*
X121163827Y-93361152D02*
X120973351Y-93361152D01*
X120973351Y-93361152D02*
X120878113Y-93408771D01*
X121306684Y-93980200D02*
X121211446Y-94027819D01*
X121211446Y-94027819D02*
X120973351Y-94027819D01*
X120973351Y-94027819D02*
X120878113Y-93980200D01*
X120878113Y-93980200D02*
X120830494Y-93884961D01*
X120830494Y-93884961D02*
X120830494Y-93789723D01*
X120830494Y-93789723D02*
X120878113Y-93694485D01*
X120878113Y-93694485D02*
X120973351Y-93646866D01*
X120973351Y-93646866D02*
X121211446Y-93646866D01*
X121211446Y-93646866D02*
X121306684Y-93599247D01*
X121640018Y-93361152D02*
X122020970Y-93361152D01*
X121782875Y-93027819D02*
X121782875Y-93884961D01*
X121782875Y-93884961D02*
X121830494Y-93980200D01*
X121830494Y-93980200D02*
X121925732Y-94027819D01*
X121925732Y-94027819D02*
X122020970Y-94027819D01*
X122211447Y-93361152D02*
X122592399Y-93361152D01*
X122354304Y-94027819D02*
X122354304Y-93170676D01*
X122354304Y-93170676D02*
X122401923Y-93075438D01*
X122401923Y-93075438D02*
X122497161Y-93027819D01*
X122497161Y-93027819D02*
X122592399Y-93027819D01*
X123068590Y-94027819D02*
X122973352Y-93980200D01*
X122973352Y-93980200D02*
X122925733Y-93932580D01*
X122925733Y-93932580D02*
X122878114Y-93837342D01*
X122878114Y-93837342D02*
X122878114Y-93551628D01*
X122878114Y-93551628D02*
X122925733Y-93456390D01*
X122925733Y-93456390D02*
X122973352Y-93408771D01*
X122973352Y-93408771D02*
X123068590Y-93361152D01*
X123068590Y-93361152D02*
X123211447Y-93361152D01*
X123211447Y-93361152D02*
X123306685Y-93408771D01*
X123306685Y-93408771D02*
X123354304Y-93456390D01*
X123354304Y-93456390D02*
X123401923Y-93551628D01*
X123401923Y-93551628D02*
X123401923Y-93837342D01*
X123401923Y-93837342D02*
X123354304Y-93932580D01*
X123354304Y-93932580D02*
X123306685Y-93980200D01*
X123306685Y-93980200D02*
X123211447Y-94027819D01*
X123211447Y-94027819D02*
X123068590Y-94027819D01*
X123830495Y-94027819D02*
X123830495Y-93361152D01*
X123830495Y-93551628D02*
X123878114Y-93456390D01*
X123878114Y-93456390D02*
X123925733Y-93408771D01*
X123925733Y-93408771D02*
X124020971Y-93361152D01*
X124020971Y-93361152D02*
X124116209Y-93361152D01*
X124449543Y-94027819D02*
X124449543Y-93361152D01*
X124449543Y-93456390D02*
X124497162Y-93408771D01*
X124497162Y-93408771D02*
X124592400Y-93361152D01*
X124592400Y-93361152D02*
X124735257Y-93361152D01*
X124735257Y-93361152D02*
X124830495Y-93408771D01*
X124830495Y-93408771D02*
X124878114Y-93504009D01*
X124878114Y-93504009D02*
X124878114Y-94027819D01*
X124878114Y-93504009D02*
X124925733Y-93408771D01*
X124925733Y-93408771D02*
X125020971Y-93361152D01*
X125020971Y-93361152D02*
X125163828Y-93361152D01*
X125163828Y-93361152D02*
X125259067Y-93408771D01*
X125259067Y-93408771D02*
X125306686Y-93504009D01*
X125306686Y-93504009D02*
X125306686Y-94027819D01*
X126544781Y-94027819D02*
X126544781Y-93027819D01*
X126544781Y-93027819D02*
X126878114Y-93742104D01*
X126878114Y-93742104D02*
X127211447Y-93027819D01*
X127211447Y-93027819D02*
X127211447Y-94027819D01*
X127830495Y-94027819D02*
X127735257Y-93980200D01*
X127735257Y-93980200D02*
X127687638Y-93932580D01*
X127687638Y-93932580D02*
X127640019Y-93837342D01*
X127640019Y-93837342D02*
X127640019Y-93551628D01*
X127640019Y-93551628D02*
X127687638Y-93456390D01*
X127687638Y-93456390D02*
X127735257Y-93408771D01*
X127735257Y-93408771D02*
X127830495Y-93361152D01*
X127830495Y-93361152D02*
X127973352Y-93361152D01*
X127973352Y-93361152D02*
X128068590Y-93408771D01*
X128068590Y-93408771D02*
X128116209Y-93456390D01*
X128116209Y-93456390D02*
X128163828Y-93551628D01*
X128163828Y-93551628D02*
X128163828Y-93837342D01*
X128163828Y-93837342D02*
X128116209Y-93932580D01*
X128116209Y-93932580D02*
X128068590Y-93980200D01*
X128068590Y-93980200D02*
X127973352Y-94027819D01*
X127973352Y-94027819D02*
X127830495Y-94027819D01*
X128449543Y-93361152D02*
X128830495Y-93361152D01*
X128592400Y-93027819D02*
X128592400Y-93884961D01*
X128592400Y-93884961D02*
X128640019Y-93980200D01*
X128640019Y-93980200D02*
X128735257Y-94027819D01*
X128735257Y-94027819D02*
X128830495Y-94027819D01*
X129306686Y-94027819D02*
X129211448Y-93980200D01*
X129211448Y-93980200D02*
X129163829Y-93932580D01*
X129163829Y-93932580D02*
X129116210Y-93837342D01*
X129116210Y-93837342D02*
X129116210Y-93551628D01*
X129116210Y-93551628D02*
X129163829Y-93456390D01*
X129163829Y-93456390D02*
X129211448Y-93408771D01*
X129211448Y-93408771D02*
X129306686Y-93361152D01*
X129306686Y-93361152D02*
X129449543Y-93361152D01*
X129449543Y-93361152D02*
X129544781Y-93408771D01*
X129544781Y-93408771D02*
X129592400Y-93456390D01*
X129592400Y-93456390D02*
X129640019Y-93551628D01*
X129640019Y-93551628D02*
X129640019Y-93837342D01*
X129640019Y-93837342D02*
X129592400Y-93932580D01*
X129592400Y-93932580D02*
X129544781Y-93980200D01*
X129544781Y-93980200D02*
X129449543Y-94027819D01*
X129449543Y-94027819D02*
X129306686Y-94027819D01*
X130068591Y-94027819D02*
X130068591Y-93361152D01*
X130068591Y-93551628D02*
X130116210Y-93456390D01*
X130116210Y-93456390D02*
X130163829Y-93408771D01*
X130163829Y-93408771D02*
X130259067Y-93361152D01*
X130259067Y-93361152D02*
X130354305Y-93361152D01*
X131401925Y-93980200D02*
X131544782Y-94027819D01*
X131544782Y-94027819D02*
X131782877Y-94027819D01*
X131782877Y-94027819D02*
X131878115Y-93980200D01*
X131878115Y-93980200D02*
X131925734Y-93932580D01*
X131925734Y-93932580D02*
X131973353Y-93837342D01*
X131973353Y-93837342D02*
X131973353Y-93742104D01*
X131973353Y-93742104D02*
X131925734Y-93646866D01*
X131925734Y-93646866D02*
X131878115Y-93599247D01*
X131878115Y-93599247D02*
X131782877Y-93551628D01*
X131782877Y-93551628D02*
X131592401Y-93504009D01*
X131592401Y-93504009D02*
X131497163Y-93456390D01*
X131497163Y-93456390D02*
X131449544Y-93408771D01*
X131449544Y-93408771D02*
X131401925Y-93313533D01*
X131401925Y-93313533D02*
X131401925Y-93218295D01*
X131401925Y-93218295D02*
X131449544Y-93123057D01*
X131449544Y-93123057D02*
X131497163Y-93075438D01*
X131497163Y-93075438D02*
X131592401Y-93027819D01*
X131592401Y-93027819D02*
X131830496Y-93027819D01*
X131830496Y-93027819D02*
X131973353Y-93075438D01*
X132401925Y-94027819D02*
X132401925Y-93027819D01*
X132830496Y-94027819D02*
X132830496Y-93504009D01*
X132830496Y-93504009D02*
X132782877Y-93408771D01*
X132782877Y-93408771D02*
X132687639Y-93361152D01*
X132687639Y-93361152D02*
X132544782Y-93361152D01*
X132544782Y-93361152D02*
X132449544Y-93408771D01*
X132449544Y-93408771D02*
X132401925Y-93456390D01*
X133306687Y-94027819D02*
X133306687Y-93361152D01*
X133306687Y-93027819D02*
X133259068Y-93075438D01*
X133259068Y-93075438D02*
X133306687Y-93123057D01*
X133306687Y-93123057D02*
X133354306Y-93075438D01*
X133354306Y-93075438D02*
X133306687Y-93027819D01*
X133306687Y-93027819D02*
X133306687Y-93123057D01*
X134163829Y-93980200D02*
X134068591Y-94027819D01*
X134068591Y-94027819D02*
X133878115Y-94027819D01*
X133878115Y-94027819D02*
X133782877Y-93980200D01*
X133782877Y-93980200D02*
X133735258Y-93884961D01*
X133735258Y-93884961D02*
X133735258Y-93504009D01*
X133735258Y-93504009D02*
X133782877Y-93408771D01*
X133782877Y-93408771D02*
X133878115Y-93361152D01*
X133878115Y-93361152D02*
X134068591Y-93361152D01*
X134068591Y-93361152D02*
X134163829Y-93408771D01*
X134163829Y-93408771D02*
X134211448Y-93504009D01*
X134211448Y-93504009D02*
X134211448Y-93599247D01*
X134211448Y-93599247D02*
X133735258Y-93694485D01*
X134782877Y-94027819D02*
X134687639Y-93980200D01*
X134687639Y-93980200D02*
X134640020Y-93884961D01*
X134640020Y-93884961D02*
X134640020Y-93027819D01*
X135592401Y-94027819D02*
X135592401Y-93027819D01*
X135592401Y-93980200D02*
X135497163Y-94027819D01*
X135497163Y-94027819D02*
X135306687Y-94027819D01*
X135306687Y-94027819D02*
X135211449Y-93980200D01*
X135211449Y-93980200D02*
X135163830Y-93932580D01*
X135163830Y-93932580D02*
X135116211Y-93837342D01*
X135116211Y-93837342D02*
X135116211Y-93551628D01*
X135116211Y-93551628D02*
X135163830Y-93456390D01*
X135163830Y-93456390D02*
X135211449Y-93408771D01*
X135211449Y-93408771D02*
X135306687Y-93361152D01*
X135306687Y-93361152D02*
X135497163Y-93361152D01*
X135497163Y-93361152D02*
X135592401Y-93408771D01*
X117195800Y-55578744D02*
X117148180Y-55721601D01*
X117148180Y-55721601D02*
X117148180Y-55959696D01*
X117148180Y-55959696D02*
X117195800Y-56054934D01*
X117195800Y-56054934D02*
X117243419Y-56102553D01*
X117243419Y-56102553D02*
X117338657Y-56150172D01*
X117338657Y-56150172D02*
X117433895Y-56150172D01*
X117433895Y-56150172D02*
X117529133Y-56102553D01*
X117529133Y-56102553D02*
X117576752Y-56054934D01*
X117576752Y-56054934D02*
X117624371Y-55959696D01*
X117624371Y-55959696D02*
X117671990Y-55769220D01*
X117671990Y-55769220D02*
X117719609Y-55673982D01*
X117719609Y-55673982D02*
X117767228Y-55626363D01*
X117767228Y-55626363D02*
X117862466Y-55578744D01*
X117862466Y-55578744D02*
X117957704Y-55578744D01*
X117957704Y-55578744D02*
X118052942Y-55626363D01*
X118052942Y-55626363D02*
X118100561Y-55673982D01*
X118100561Y-55673982D02*
X118148180Y-55769220D01*
X118148180Y-55769220D02*
X118148180Y-56007315D01*
X118148180Y-56007315D02*
X118100561Y-56150172D01*
X118148180Y-56435887D02*
X118148180Y-57007315D01*
X117148180Y-56721601D02*
X118148180Y-56721601D01*
X117671990Y-57340649D02*
X117671990Y-57673982D01*
X117148180Y-57816839D02*
X117148180Y-57340649D01*
X117148180Y-57340649D02*
X118148180Y-57340649D01*
X118148180Y-57340649D02*
X118148180Y-57816839D01*
X117148180Y-58245411D02*
X118148180Y-58245411D01*
X118148180Y-58245411D02*
X118148180Y-58626363D01*
X118148180Y-58626363D02*
X118100561Y-58721601D01*
X118100561Y-58721601D02*
X118052942Y-58769220D01*
X118052942Y-58769220D02*
X117957704Y-58816839D01*
X117957704Y-58816839D02*
X117814847Y-58816839D01*
X117814847Y-58816839D02*
X117719609Y-58769220D01*
X117719609Y-58769220D02*
X117671990Y-58721601D01*
X117671990Y-58721601D02*
X117624371Y-58626363D01*
X117624371Y-58626363D02*
X117624371Y-58245411D01*
X140008180Y-56769221D02*
X141008180Y-56769221D01*
X141008180Y-56769221D02*
X141008180Y-57007316D01*
X141008180Y-57007316D02*
X140960561Y-57150173D01*
X140960561Y-57150173D02*
X140865323Y-57245411D01*
X140865323Y-57245411D02*
X140770085Y-57293030D01*
X140770085Y-57293030D02*
X140579609Y-57340649D01*
X140579609Y-57340649D02*
X140436752Y-57340649D01*
X140436752Y-57340649D02*
X140246276Y-57293030D01*
X140246276Y-57293030D02*
X140151038Y-57245411D01*
X140151038Y-57245411D02*
X140055800Y-57150173D01*
X140055800Y-57150173D02*
X140008180Y-57007316D01*
X140008180Y-57007316D02*
X140008180Y-56769221D01*
X140008180Y-57769221D02*
X141008180Y-57769221D01*
X140008180Y-58816839D02*
X140484371Y-58483506D01*
X140008180Y-58245411D02*
X141008180Y-58245411D01*
X141008180Y-58245411D02*
X141008180Y-58626363D01*
X141008180Y-58626363D02*
X140960561Y-58721601D01*
X140960561Y-58721601D02*
X140912942Y-58769220D01*
X140912942Y-58769220D02*
X140817704Y-58816839D01*
X140817704Y-58816839D02*
X140674847Y-58816839D01*
X140674847Y-58816839D02*
X140579609Y-58769220D01*
X140579609Y-58769220D02*
X140531990Y-58721601D01*
X140531990Y-58721601D02*
X140484371Y-58626363D01*
X140484371Y-58626363D02*
X140484371Y-58245411D01*
X133165990Y-57293030D02*
X133165990Y-57626363D01*
X132642180Y-57769220D02*
X132642180Y-57293030D01*
X132642180Y-57293030D02*
X133642180Y-57293030D01*
X133642180Y-57293030D02*
X133642180Y-57769220D01*
X132642180Y-58197792D02*
X133642180Y-58197792D01*
X133642180Y-58197792D02*
X132642180Y-58769220D01*
X132642180Y-58769220D02*
X133642180Y-58769220D01*
X152962180Y-56197792D02*
X153962180Y-56197792D01*
X153962180Y-56197792D02*
X153247895Y-56531125D01*
X153247895Y-56531125D02*
X153962180Y-56864458D01*
X153962180Y-56864458D02*
X152962180Y-56864458D01*
X153009800Y-57293030D02*
X152962180Y-57435887D01*
X152962180Y-57435887D02*
X152962180Y-57673982D01*
X152962180Y-57673982D02*
X153009800Y-57769220D01*
X153009800Y-57769220D02*
X153057419Y-57816839D01*
X153057419Y-57816839D02*
X153152657Y-57864458D01*
X153152657Y-57864458D02*
X153247895Y-57864458D01*
X153247895Y-57864458D02*
X153343133Y-57816839D01*
X153343133Y-57816839D02*
X153390752Y-57769220D01*
X153390752Y-57769220D02*
X153438371Y-57673982D01*
X153438371Y-57673982D02*
X153485990Y-57483506D01*
X153485990Y-57483506D02*
X153533609Y-57388268D01*
X153533609Y-57388268D02*
X153581228Y-57340649D01*
X153581228Y-57340649D02*
X153676466Y-57293030D01*
X153676466Y-57293030D02*
X153771704Y-57293030D01*
X153771704Y-57293030D02*
X153866942Y-57340649D01*
X153866942Y-57340649D02*
X153914561Y-57388268D01*
X153914561Y-57388268D02*
X153962180Y-57483506D01*
X153962180Y-57483506D02*
X153962180Y-57721601D01*
X153962180Y-57721601D02*
X153914561Y-57864458D01*
X153866942Y-58245411D02*
X153914561Y-58293030D01*
X153914561Y-58293030D02*
X153962180Y-58388268D01*
X153962180Y-58388268D02*
X153962180Y-58626363D01*
X153962180Y-58626363D02*
X153914561Y-58721601D01*
X153914561Y-58721601D02*
X153866942Y-58769220D01*
X153866942Y-58769220D02*
X153771704Y-58816839D01*
X153771704Y-58816839D02*
X153676466Y-58816839D01*
X153676466Y-58816839D02*
X153533609Y-58769220D01*
X153533609Y-58769220D02*
X152962180Y-58197792D01*
X152962180Y-58197792D02*
X152962180Y-58816839D01*
X123974231Y-65011713D02*
X123974231Y-65392666D01*
X123745659Y-64935523D02*
X124545659Y-65202190D01*
X124545659Y-65202190D02*
X123745659Y-65468856D01*
X124278993Y-66078380D02*
X123745659Y-66078380D01*
X124583755Y-65887904D02*
X124012326Y-65697427D01*
X124012326Y-65697427D02*
X124012326Y-66192666D01*
X123745659Y-66535523D02*
X123745659Y-66687904D01*
X123745659Y-66687904D02*
X123783755Y-66764094D01*
X123783755Y-66764094D02*
X123821850Y-66802190D01*
X123821850Y-66802190D02*
X123936135Y-66878380D01*
X123936135Y-66878380D02*
X124088516Y-66916475D01*
X124088516Y-66916475D02*
X124393278Y-66916475D01*
X124393278Y-66916475D02*
X124469469Y-66878380D01*
X124469469Y-66878380D02*
X124507564Y-66840285D01*
X124507564Y-66840285D02*
X124545659Y-66764094D01*
X124545659Y-66764094D02*
X124545659Y-66611713D01*
X124545659Y-66611713D02*
X124507564Y-66535523D01*
X124507564Y-66535523D02*
X124469469Y-66497428D01*
X124469469Y-66497428D02*
X124393278Y-66459332D01*
X124393278Y-66459332D02*
X124202802Y-66459332D01*
X124202802Y-66459332D02*
X124126612Y-66497428D01*
X124126612Y-66497428D02*
X124088516Y-66535523D01*
X124088516Y-66535523D02*
X124050421Y-66611713D01*
X124050421Y-66611713D02*
X124050421Y-66764094D01*
X124050421Y-66764094D02*
X124088516Y-66840285D01*
X124088516Y-66840285D02*
X124126612Y-66878380D01*
X124126612Y-66878380D02*
X124202802Y-66916475D01*
X124202802Y-67373618D02*
X124240897Y-67297428D01*
X124240897Y-67297428D02*
X124278993Y-67259333D01*
X124278993Y-67259333D02*
X124355183Y-67221237D01*
X124355183Y-67221237D02*
X124393278Y-67221237D01*
X124393278Y-67221237D02*
X124469469Y-67259333D01*
X124469469Y-67259333D02*
X124507564Y-67297428D01*
X124507564Y-67297428D02*
X124545659Y-67373618D01*
X124545659Y-67373618D02*
X124545659Y-67525999D01*
X124545659Y-67525999D02*
X124507564Y-67602190D01*
X124507564Y-67602190D02*
X124469469Y-67640285D01*
X124469469Y-67640285D02*
X124393278Y-67678380D01*
X124393278Y-67678380D02*
X124355183Y-67678380D01*
X124355183Y-67678380D02*
X124278993Y-67640285D01*
X124278993Y-67640285D02*
X124240897Y-67602190D01*
X124240897Y-67602190D02*
X124202802Y-67525999D01*
X124202802Y-67525999D02*
X124202802Y-67373618D01*
X124202802Y-67373618D02*
X124164707Y-67297428D01*
X124164707Y-67297428D02*
X124126612Y-67259333D01*
X124126612Y-67259333D02*
X124050421Y-67221237D01*
X124050421Y-67221237D02*
X123898040Y-67221237D01*
X123898040Y-67221237D02*
X123821850Y-67259333D01*
X123821850Y-67259333D02*
X123783755Y-67297428D01*
X123783755Y-67297428D02*
X123745659Y-67373618D01*
X123745659Y-67373618D02*
X123745659Y-67525999D01*
X123745659Y-67525999D02*
X123783755Y-67602190D01*
X123783755Y-67602190D02*
X123821850Y-67640285D01*
X123821850Y-67640285D02*
X123898040Y-67678380D01*
X123898040Y-67678380D02*
X124050421Y-67678380D01*
X124050421Y-67678380D02*
X124126612Y-67640285D01*
X124126612Y-67640285D02*
X124164707Y-67602190D01*
X124164707Y-67602190D02*
X124202802Y-67525999D01*
X124202802Y-68135523D02*
X124240897Y-68059333D01*
X124240897Y-68059333D02*
X124278993Y-68021238D01*
X124278993Y-68021238D02*
X124355183Y-67983142D01*
X124355183Y-67983142D02*
X124393278Y-67983142D01*
X124393278Y-67983142D02*
X124469469Y-68021238D01*
X124469469Y-68021238D02*
X124507564Y-68059333D01*
X124507564Y-68059333D02*
X124545659Y-68135523D01*
X124545659Y-68135523D02*
X124545659Y-68287904D01*
X124545659Y-68287904D02*
X124507564Y-68364095D01*
X124507564Y-68364095D02*
X124469469Y-68402190D01*
X124469469Y-68402190D02*
X124393278Y-68440285D01*
X124393278Y-68440285D02*
X124355183Y-68440285D01*
X124355183Y-68440285D02*
X124278993Y-68402190D01*
X124278993Y-68402190D02*
X124240897Y-68364095D01*
X124240897Y-68364095D02*
X124202802Y-68287904D01*
X124202802Y-68287904D02*
X124202802Y-68135523D01*
X124202802Y-68135523D02*
X124164707Y-68059333D01*
X124164707Y-68059333D02*
X124126612Y-68021238D01*
X124126612Y-68021238D02*
X124050421Y-67983142D01*
X124050421Y-67983142D02*
X123898040Y-67983142D01*
X123898040Y-67983142D02*
X123821850Y-68021238D01*
X123821850Y-68021238D02*
X123783755Y-68059333D01*
X123783755Y-68059333D02*
X123745659Y-68135523D01*
X123745659Y-68135523D02*
X123745659Y-68287904D01*
X123745659Y-68287904D02*
X123783755Y-68364095D01*
X123783755Y-68364095D02*
X123821850Y-68402190D01*
X123821850Y-68402190D02*
X123898040Y-68440285D01*
X123898040Y-68440285D02*
X124050421Y-68440285D01*
X124050421Y-68440285D02*
X124126612Y-68402190D01*
X124126612Y-68402190D02*
X124164707Y-68364095D01*
X124164707Y-68364095D02*
X124202802Y-68287904D01*
X122457704Y-66326000D02*
X123257704Y-66326000D01*
X122533895Y-67164095D02*
X122495800Y-67125999D01*
X122495800Y-67125999D02*
X122457704Y-67011714D01*
X122457704Y-67011714D02*
X122457704Y-66935523D01*
X122457704Y-66935523D02*
X122495800Y-66821237D01*
X122495800Y-66821237D02*
X122571990Y-66745047D01*
X122571990Y-66745047D02*
X122648180Y-66706952D01*
X122648180Y-66706952D02*
X122800561Y-66668856D01*
X122800561Y-66668856D02*
X122914847Y-66668856D01*
X122914847Y-66668856D02*
X123067228Y-66706952D01*
X123067228Y-66706952D02*
X123143419Y-66745047D01*
X123143419Y-66745047D02*
X123219609Y-66821237D01*
X123219609Y-66821237D02*
X123257704Y-66935523D01*
X123257704Y-66935523D02*
X123257704Y-67011714D01*
X123257704Y-67011714D02*
X123219609Y-67125999D01*
X123219609Y-67125999D02*
X123181514Y-67164095D01*
X158565990Y-57293030D02*
X158565990Y-57626363D01*
X158042180Y-57769220D02*
X158042180Y-57293030D01*
X158042180Y-57293030D02*
X159042180Y-57293030D01*
X159042180Y-57293030D02*
X159042180Y-57769220D01*
X158042180Y-58197792D02*
X159042180Y-58197792D01*
X159042180Y-58197792D02*
X158042180Y-58769220D01*
X158042180Y-58769220D02*
X159042180Y-58769220D01*
X145135800Y-56435887D02*
X145088180Y-56578744D01*
X145088180Y-56578744D02*
X145088180Y-56816839D01*
X145088180Y-56816839D02*
X145135800Y-56912077D01*
X145135800Y-56912077D02*
X145183419Y-56959696D01*
X145183419Y-56959696D02*
X145278657Y-57007315D01*
X145278657Y-57007315D02*
X145373895Y-57007315D01*
X145373895Y-57007315D02*
X145469133Y-56959696D01*
X145469133Y-56959696D02*
X145516752Y-56912077D01*
X145516752Y-56912077D02*
X145564371Y-56816839D01*
X145564371Y-56816839D02*
X145611990Y-56626363D01*
X145611990Y-56626363D02*
X145659609Y-56531125D01*
X145659609Y-56531125D02*
X145707228Y-56483506D01*
X145707228Y-56483506D02*
X145802466Y-56435887D01*
X145802466Y-56435887D02*
X145897704Y-56435887D01*
X145897704Y-56435887D02*
X145992942Y-56483506D01*
X145992942Y-56483506D02*
X146040561Y-56531125D01*
X146040561Y-56531125D02*
X146088180Y-56626363D01*
X146088180Y-56626363D02*
X146088180Y-56864458D01*
X146088180Y-56864458D02*
X146040561Y-57007315D01*
X145088180Y-57912077D02*
X145088180Y-57435887D01*
X145088180Y-57435887D02*
X146088180Y-57435887D01*
X145088180Y-58245411D02*
X146088180Y-58245411D01*
X146088180Y-58245411D02*
X146088180Y-58626363D01*
X146088180Y-58626363D02*
X146040561Y-58721601D01*
X146040561Y-58721601D02*
X145992942Y-58769220D01*
X145992942Y-58769220D02*
X145897704Y-58816839D01*
X145897704Y-58816839D02*
X145754847Y-58816839D01*
X145754847Y-58816839D02*
X145659609Y-58769220D01*
X145659609Y-58769220D02*
X145611990Y-58721601D01*
X145611990Y-58721601D02*
X145564371Y-58626363D01*
X145564371Y-58626363D02*
X145564371Y-58245411D01*
X151580942Y-85557160D02*
X151628561Y-85604779D01*
X151628561Y-85604779D02*
X151676180Y-85700017D01*
X151676180Y-85700017D02*
X151676180Y-85938112D01*
X151676180Y-85938112D02*
X151628561Y-86033350D01*
X151628561Y-86033350D02*
X151580942Y-86080969D01*
X151580942Y-86080969D02*
X151485704Y-86128588D01*
X151485704Y-86128588D02*
X151390466Y-86128588D01*
X151390466Y-86128588D02*
X151247609Y-86080969D01*
X151247609Y-86080969D02*
X150676180Y-85509541D01*
X150676180Y-85509541D02*
X150676180Y-86128588D01*
X150961895Y-86509541D02*
X150961895Y-86985731D01*
X150676180Y-86414303D02*
X151676180Y-86747636D01*
X151676180Y-86747636D02*
X150676180Y-87080969D01*
X127562180Y-56197792D02*
X128562180Y-56197792D01*
X128562180Y-56197792D02*
X127847895Y-56531125D01*
X127847895Y-56531125D02*
X128562180Y-56864458D01*
X128562180Y-56864458D02*
X127562180Y-56864458D01*
X127609800Y-57293030D02*
X127562180Y-57435887D01*
X127562180Y-57435887D02*
X127562180Y-57673982D01*
X127562180Y-57673982D02*
X127609800Y-57769220D01*
X127609800Y-57769220D02*
X127657419Y-57816839D01*
X127657419Y-57816839D02*
X127752657Y-57864458D01*
X127752657Y-57864458D02*
X127847895Y-57864458D01*
X127847895Y-57864458D02*
X127943133Y-57816839D01*
X127943133Y-57816839D02*
X127990752Y-57769220D01*
X127990752Y-57769220D02*
X128038371Y-57673982D01*
X128038371Y-57673982D02*
X128085990Y-57483506D01*
X128085990Y-57483506D02*
X128133609Y-57388268D01*
X128133609Y-57388268D02*
X128181228Y-57340649D01*
X128181228Y-57340649D02*
X128276466Y-57293030D01*
X128276466Y-57293030D02*
X128371704Y-57293030D01*
X128371704Y-57293030D02*
X128466942Y-57340649D01*
X128466942Y-57340649D02*
X128514561Y-57388268D01*
X128514561Y-57388268D02*
X128562180Y-57483506D01*
X128562180Y-57483506D02*
X128562180Y-57721601D01*
X128562180Y-57721601D02*
X128514561Y-57864458D01*
X128466942Y-58245411D02*
X128514561Y-58293030D01*
X128514561Y-58293030D02*
X128562180Y-58388268D01*
X128562180Y-58388268D02*
X128562180Y-58626363D01*
X128562180Y-58626363D02*
X128514561Y-58721601D01*
X128514561Y-58721601D02*
X128466942Y-58769220D01*
X128466942Y-58769220D02*
X128371704Y-58816839D01*
X128371704Y-58816839D02*
X128276466Y-58816839D01*
X128276466Y-58816839D02*
X128133609Y-58769220D01*
X128133609Y-58769220D02*
X127562180Y-58197792D01*
X127562180Y-58197792D02*
X127562180Y-58816839D01*
X119735800Y-56435887D02*
X119688180Y-56578744D01*
X119688180Y-56578744D02*
X119688180Y-56816839D01*
X119688180Y-56816839D02*
X119735800Y-56912077D01*
X119735800Y-56912077D02*
X119783419Y-56959696D01*
X119783419Y-56959696D02*
X119878657Y-57007315D01*
X119878657Y-57007315D02*
X119973895Y-57007315D01*
X119973895Y-57007315D02*
X120069133Y-56959696D01*
X120069133Y-56959696D02*
X120116752Y-56912077D01*
X120116752Y-56912077D02*
X120164371Y-56816839D01*
X120164371Y-56816839D02*
X120211990Y-56626363D01*
X120211990Y-56626363D02*
X120259609Y-56531125D01*
X120259609Y-56531125D02*
X120307228Y-56483506D01*
X120307228Y-56483506D02*
X120402466Y-56435887D01*
X120402466Y-56435887D02*
X120497704Y-56435887D01*
X120497704Y-56435887D02*
X120592942Y-56483506D01*
X120592942Y-56483506D02*
X120640561Y-56531125D01*
X120640561Y-56531125D02*
X120688180Y-56626363D01*
X120688180Y-56626363D02*
X120688180Y-56864458D01*
X120688180Y-56864458D02*
X120640561Y-57007315D01*
X119688180Y-57912077D02*
X119688180Y-57435887D01*
X119688180Y-57435887D02*
X120688180Y-57435887D01*
X119688180Y-58245411D02*
X120688180Y-58245411D01*
X120688180Y-58245411D02*
X120688180Y-58626363D01*
X120688180Y-58626363D02*
X120640561Y-58721601D01*
X120640561Y-58721601D02*
X120592942Y-58769220D01*
X120592942Y-58769220D02*
X120497704Y-58816839D01*
X120497704Y-58816839D02*
X120354847Y-58816839D01*
X120354847Y-58816839D02*
X120259609Y-58769220D01*
X120259609Y-58769220D02*
X120211990Y-58721601D01*
X120211990Y-58721601D02*
X120164371Y-58626363D01*
X120164371Y-58626363D02*
X120164371Y-58245411D01*
X148136180Y-86128588D02*
X148136180Y-85557160D01*
X148136180Y-85842874D02*
X149136180Y-85842874D01*
X149136180Y-85842874D02*
X148993323Y-85747636D01*
X148993323Y-85747636D02*
X148898085Y-85652398D01*
X148898085Y-85652398D02*
X148850466Y-85557160D01*
X148421895Y-86509541D02*
X148421895Y-86985731D01*
X148136180Y-86414303D02*
X149136180Y-86747636D01*
X149136180Y-86747636D02*
X148136180Y-87080969D01*
X120846942Y-85557160D02*
X120894561Y-85604779D01*
X120894561Y-85604779D02*
X120942180Y-85700017D01*
X120942180Y-85700017D02*
X120942180Y-85938112D01*
X120942180Y-85938112D02*
X120894561Y-86033350D01*
X120894561Y-86033350D02*
X120846942Y-86080969D01*
X120846942Y-86080969D02*
X120751704Y-86128588D01*
X120751704Y-86128588D02*
X120656466Y-86128588D01*
X120656466Y-86128588D02*
X120513609Y-86080969D01*
X120513609Y-86080969D02*
X119942180Y-85509541D01*
X119942180Y-85509541D02*
X119942180Y-86128588D01*
X120465990Y-86890493D02*
X120418371Y-87033350D01*
X120418371Y-87033350D02*
X120370752Y-87080969D01*
X120370752Y-87080969D02*
X120275514Y-87128588D01*
X120275514Y-87128588D02*
X120132657Y-87128588D01*
X120132657Y-87128588D02*
X120037419Y-87080969D01*
X120037419Y-87080969D02*
X119989800Y-87033350D01*
X119989800Y-87033350D02*
X119942180Y-86938112D01*
X119942180Y-86938112D02*
X119942180Y-86557160D01*
X119942180Y-86557160D02*
X120942180Y-86557160D01*
X120942180Y-86557160D02*
X120942180Y-86890493D01*
X120942180Y-86890493D02*
X120894561Y-86985731D01*
X120894561Y-86985731D02*
X120846942Y-87033350D01*
X120846942Y-87033350D02*
X120751704Y-87080969D01*
X120751704Y-87080969D02*
X120656466Y-87080969D01*
X120656466Y-87080969D02*
X120561228Y-87033350D01*
X120561228Y-87033350D02*
X120513609Y-86985731D01*
X120513609Y-86985731D02*
X120465990Y-86890493D01*
X120465990Y-86890493D02*
X120465990Y-86557160D01*
X150422180Y-56197792D02*
X151422180Y-56197792D01*
X151422180Y-56197792D02*
X150707895Y-56531125D01*
X150707895Y-56531125D02*
X151422180Y-56864458D01*
X151422180Y-56864458D02*
X150422180Y-56864458D01*
X150469800Y-57293030D02*
X150422180Y-57435887D01*
X150422180Y-57435887D02*
X150422180Y-57673982D01*
X150422180Y-57673982D02*
X150469800Y-57769220D01*
X150469800Y-57769220D02*
X150517419Y-57816839D01*
X150517419Y-57816839D02*
X150612657Y-57864458D01*
X150612657Y-57864458D02*
X150707895Y-57864458D01*
X150707895Y-57864458D02*
X150803133Y-57816839D01*
X150803133Y-57816839D02*
X150850752Y-57769220D01*
X150850752Y-57769220D02*
X150898371Y-57673982D01*
X150898371Y-57673982D02*
X150945990Y-57483506D01*
X150945990Y-57483506D02*
X150993609Y-57388268D01*
X150993609Y-57388268D02*
X151041228Y-57340649D01*
X151041228Y-57340649D02*
X151136466Y-57293030D01*
X151136466Y-57293030D02*
X151231704Y-57293030D01*
X151231704Y-57293030D02*
X151326942Y-57340649D01*
X151326942Y-57340649D02*
X151374561Y-57388268D01*
X151374561Y-57388268D02*
X151422180Y-57483506D01*
X151422180Y-57483506D02*
X151422180Y-57721601D01*
X151422180Y-57721601D02*
X151374561Y-57864458D01*
X151422180Y-58197792D02*
X151422180Y-58816839D01*
X151422180Y-58816839D02*
X151041228Y-58483506D01*
X151041228Y-58483506D02*
X151041228Y-58626363D01*
X151041228Y-58626363D02*
X150993609Y-58721601D01*
X150993609Y-58721601D02*
X150945990Y-58769220D01*
X150945990Y-58769220D02*
X150850752Y-58816839D01*
X150850752Y-58816839D02*
X150612657Y-58816839D01*
X150612657Y-58816839D02*
X150517419Y-58769220D01*
X150517419Y-58769220D02*
X150469800Y-58721601D01*
X150469800Y-58721601D02*
X150422180Y-58626363D01*
X150422180Y-58626363D02*
X150422180Y-58340649D01*
X150422180Y-58340649D02*
X150469800Y-58245411D01*
X150469800Y-58245411D02*
X150517419Y-58197792D01*
X114608180Y-56769221D02*
X115608180Y-56769221D01*
X115608180Y-56769221D02*
X115608180Y-57007316D01*
X115608180Y-57007316D02*
X115560561Y-57150173D01*
X115560561Y-57150173D02*
X115465323Y-57245411D01*
X115465323Y-57245411D02*
X115370085Y-57293030D01*
X115370085Y-57293030D02*
X115179609Y-57340649D01*
X115179609Y-57340649D02*
X115036752Y-57340649D01*
X115036752Y-57340649D02*
X114846276Y-57293030D01*
X114846276Y-57293030D02*
X114751038Y-57245411D01*
X114751038Y-57245411D02*
X114655800Y-57150173D01*
X114655800Y-57150173D02*
X114608180Y-57007316D01*
X114608180Y-57007316D02*
X114608180Y-56769221D01*
X114608180Y-57769221D02*
X115608180Y-57769221D01*
X114608180Y-58816839D02*
X115084371Y-58483506D01*
X114608180Y-58245411D02*
X115608180Y-58245411D01*
X115608180Y-58245411D02*
X115608180Y-58626363D01*
X115608180Y-58626363D02*
X115560561Y-58721601D01*
X115560561Y-58721601D02*
X115512942Y-58769220D01*
X115512942Y-58769220D02*
X115417704Y-58816839D01*
X115417704Y-58816839D02*
X115274847Y-58816839D01*
X115274847Y-58816839D02*
X115179609Y-58769220D01*
X115179609Y-58769220D02*
X115131990Y-58721601D01*
X115131990Y-58721601D02*
X115084371Y-58626363D01*
X115084371Y-58626363D02*
X115084371Y-58245411D01*
X125022180Y-56197792D02*
X126022180Y-56197792D01*
X126022180Y-56197792D02*
X125307895Y-56531125D01*
X125307895Y-56531125D02*
X126022180Y-56864458D01*
X126022180Y-56864458D02*
X125022180Y-56864458D01*
X125069800Y-57293030D02*
X125022180Y-57435887D01*
X125022180Y-57435887D02*
X125022180Y-57673982D01*
X125022180Y-57673982D02*
X125069800Y-57769220D01*
X125069800Y-57769220D02*
X125117419Y-57816839D01*
X125117419Y-57816839D02*
X125212657Y-57864458D01*
X125212657Y-57864458D02*
X125307895Y-57864458D01*
X125307895Y-57864458D02*
X125403133Y-57816839D01*
X125403133Y-57816839D02*
X125450752Y-57769220D01*
X125450752Y-57769220D02*
X125498371Y-57673982D01*
X125498371Y-57673982D02*
X125545990Y-57483506D01*
X125545990Y-57483506D02*
X125593609Y-57388268D01*
X125593609Y-57388268D02*
X125641228Y-57340649D01*
X125641228Y-57340649D02*
X125736466Y-57293030D01*
X125736466Y-57293030D02*
X125831704Y-57293030D01*
X125831704Y-57293030D02*
X125926942Y-57340649D01*
X125926942Y-57340649D02*
X125974561Y-57388268D01*
X125974561Y-57388268D02*
X126022180Y-57483506D01*
X126022180Y-57483506D02*
X126022180Y-57721601D01*
X126022180Y-57721601D02*
X125974561Y-57864458D01*
X126022180Y-58197792D02*
X126022180Y-58816839D01*
X126022180Y-58816839D02*
X125641228Y-58483506D01*
X125641228Y-58483506D02*
X125641228Y-58626363D01*
X125641228Y-58626363D02*
X125593609Y-58721601D01*
X125593609Y-58721601D02*
X125545990Y-58769220D01*
X125545990Y-58769220D02*
X125450752Y-58816839D01*
X125450752Y-58816839D02*
X125212657Y-58816839D01*
X125212657Y-58816839D02*
X125117419Y-58769220D01*
X125117419Y-58769220D02*
X125069800Y-58721601D01*
X125069800Y-58721601D02*
X125022180Y-58626363D01*
X125022180Y-58626363D02*
X125022180Y-58340649D01*
X125022180Y-58340649D02*
X125069800Y-58245411D01*
X125069800Y-58245411D02*
X125117419Y-58197792D01*
X122482180Y-86128588D02*
X122482180Y-85557160D01*
X122482180Y-85842874D02*
X123482180Y-85842874D01*
X123482180Y-85842874D02*
X123339323Y-85747636D01*
X123339323Y-85747636D02*
X123244085Y-85652398D01*
X123244085Y-85652398D02*
X123196466Y-85557160D01*
X122767895Y-86509541D02*
X122767895Y-86985731D01*
X122482180Y-86414303D02*
X123482180Y-86747636D01*
X123482180Y-86747636D02*
X122482180Y-87080969D01*
X127562180Y-86128588D02*
X127562180Y-85557160D01*
X127562180Y-85842874D02*
X128562180Y-85842874D01*
X128562180Y-85842874D02*
X128419323Y-85747636D01*
X128419323Y-85747636D02*
X128324085Y-85652398D01*
X128324085Y-85652398D02*
X128276466Y-85557160D01*
X128085990Y-86890493D02*
X128038371Y-87033350D01*
X128038371Y-87033350D02*
X127990752Y-87080969D01*
X127990752Y-87080969D02*
X127895514Y-87128588D01*
X127895514Y-87128588D02*
X127752657Y-87128588D01*
X127752657Y-87128588D02*
X127657419Y-87080969D01*
X127657419Y-87080969D02*
X127609800Y-87033350D01*
X127609800Y-87033350D02*
X127562180Y-86938112D01*
X127562180Y-86938112D02*
X127562180Y-86557160D01*
X127562180Y-86557160D02*
X128562180Y-86557160D01*
X128562180Y-86557160D02*
X128562180Y-86890493D01*
X128562180Y-86890493D02*
X128514561Y-86985731D01*
X128514561Y-86985731D02*
X128466942Y-87033350D01*
X128466942Y-87033350D02*
X128371704Y-87080969D01*
X128371704Y-87080969D02*
X128276466Y-87080969D01*
X128276466Y-87080969D02*
X128181228Y-87033350D01*
X128181228Y-87033350D02*
X128133609Y-86985731D01*
X128133609Y-86985731D02*
X128085990Y-86890493D01*
X128085990Y-86890493D02*
X128085990Y-86557160D01*
X122228180Y-57102553D02*
X122704371Y-56769220D01*
X122228180Y-56531125D02*
X123228180Y-56531125D01*
X123228180Y-56531125D02*
X123228180Y-56912077D01*
X123228180Y-56912077D02*
X123180561Y-57007315D01*
X123180561Y-57007315D02*
X123132942Y-57054934D01*
X123132942Y-57054934D02*
X123037704Y-57102553D01*
X123037704Y-57102553D02*
X122894847Y-57102553D01*
X122894847Y-57102553D02*
X122799609Y-57054934D01*
X122799609Y-57054934D02*
X122751990Y-57007315D01*
X122751990Y-57007315D02*
X122704371Y-56912077D01*
X122704371Y-56912077D02*
X122704371Y-56531125D01*
X122275800Y-57483506D02*
X122228180Y-57626363D01*
X122228180Y-57626363D02*
X122228180Y-57864458D01*
X122228180Y-57864458D02*
X122275800Y-57959696D01*
X122275800Y-57959696D02*
X122323419Y-58007315D01*
X122323419Y-58007315D02*
X122418657Y-58054934D01*
X122418657Y-58054934D02*
X122513895Y-58054934D01*
X122513895Y-58054934D02*
X122609133Y-58007315D01*
X122609133Y-58007315D02*
X122656752Y-57959696D01*
X122656752Y-57959696D02*
X122704371Y-57864458D01*
X122704371Y-57864458D02*
X122751990Y-57673982D01*
X122751990Y-57673982D02*
X122799609Y-57578744D01*
X122799609Y-57578744D02*
X122847228Y-57531125D01*
X122847228Y-57531125D02*
X122942466Y-57483506D01*
X122942466Y-57483506D02*
X123037704Y-57483506D01*
X123037704Y-57483506D02*
X123132942Y-57531125D01*
X123132942Y-57531125D02*
X123180561Y-57578744D01*
X123180561Y-57578744D02*
X123228180Y-57673982D01*
X123228180Y-57673982D02*
X123228180Y-57912077D01*
X123228180Y-57912077D02*
X123180561Y-58054934D01*
X123228180Y-58340649D02*
X123228180Y-58912077D01*
X122228180Y-58626363D02*
X123228180Y-58626363D01*
X125926942Y-85557160D02*
X125974561Y-85604779D01*
X125974561Y-85604779D02*
X126022180Y-85700017D01*
X126022180Y-85700017D02*
X126022180Y-85938112D01*
X126022180Y-85938112D02*
X125974561Y-86033350D01*
X125974561Y-86033350D02*
X125926942Y-86080969D01*
X125926942Y-86080969D02*
X125831704Y-86128588D01*
X125831704Y-86128588D02*
X125736466Y-86128588D01*
X125736466Y-86128588D02*
X125593609Y-86080969D01*
X125593609Y-86080969D02*
X125022180Y-85509541D01*
X125022180Y-85509541D02*
X125022180Y-86128588D01*
X125307895Y-86509541D02*
X125307895Y-86985731D01*
X125022180Y-86414303D02*
X126022180Y-86747636D01*
X126022180Y-86747636D02*
X125022180Y-87080969D01*
X148866231Y-65011713D02*
X148866231Y-65392666D01*
X148637659Y-64935523D02*
X149437659Y-65202190D01*
X149437659Y-65202190D02*
X148637659Y-65468856D01*
X149170993Y-66078380D02*
X148637659Y-66078380D01*
X149475755Y-65887904D02*
X148904326Y-65697427D01*
X148904326Y-65697427D02*
X148904326Y-66192666D01*
X148637659Y-66535523D02*
X148637659Y-66687904D01*
X148637659Y-66687904D02*
X148675755Y-66764094D01*
X148675755Y-66764094D02*
X148713850Y-66802190D01*
X148713850Y-66802190D02*
X148828135Y-66878380D01*
X148828135Y-66878380D02*
X148980516Y-66916475D01*
X148980516Y-66916475D02*
X149285278Y-66916475D01*
X149285278Y-66916475D02*
X149361469Y-66878380D01*
X149361469Y-66878380D02*
X149399564Y-66840285D01*
X149399564Y-66840285D02*
X149437659Y-66764094D01*
X149437659Y-66764094D02*
X149437659Y-66611713D01*
X149437659Y-66611713D02*
X149399564Y-66535523D01*
X149399564Y-66535523D02*
X149361469Y-66497428D01*
X149361469Y-66497428D02*
X149285278Y-66459332D01*
X149285278Y-66459332D02*
X149094802Y-66459332D01*
X149094802Y-66459332D02*
X149018612Y-66497428D01*
X149018612Y-66497428D02*
X148980516Y-66535523D01*
X148980516Y-66535523D02*
X148942421Y-66611713D01*
X148942421Y-66611713D02*
X148942421Y-66764094D01*
X148942421Y-66764094D02*
X148980516Y-66840285D01*
X148980516Y-66840285D02*
X149018612Y-66878380D01*
X149018612Y-66878380D02*
X149094802Y-66916475D01*
X149094802Y-67373618D02*
X149132897Y-67297428D01*
X149132897Y-67297428D02*
X149170993Y-67259333D01*
X149170993Y-67259333D02*
X149247183Y-67221237D01*
X149247183Y-67221237D02*
X149285278Y-67221237D01*
X149285278Y-67221237D02*
X149361469Y-67259333D01*
X149361469Y-67259333D02*
X149399564Y-67297428D01*
X149399564Y-67297428D02*
X149437659Y-67373618D01*
X149437659Y-67373618D02*
X149437659Y-67525999D01*
X149437659Y-67525999D02*
X149399564Y-67602190D01*
X149399564Y-67602190D02*
X149361469Y-67640285D01*
X149361469Y-67640285D02*
X149285278Y-67678380D01*
X149285278Y-67678380D02*
X149247183Y-67678380D01*
X149247183Y-67678380D02*
X149170993Y-67640285D01*
X149170993Y-67640285D02*
X149132897Y-67602190D01*
X149132897Y-67602190D02*
X149094802Y-67525999D01*
X149094802Y-67525999D02*
X149094802Y-67373618D01*
X149094802Y-67373618D02*
X149056707Y-67297428D01*
X149056707Y-67297428D02*
X149018612Y-67259333D01*
X149018612Y-67259333D02*
X148942421Y-67221237D01*
X148942421Y-67221237D02*
X148790040Y-67221237D01*
X148790040Y-67221237D02*
X148713850Y-67259333D01*
X148713850Y-67259333D02*
X148675755Y-67297428D01*
X148675755Y-67297428D02*
X148637659Y-67373618D01*
X148637659Y-67373618D02*
X148637659Y-67525999D01*
X148637659Y-67525999D02*
X148675755Y-67602190D01*
X148675755Y-67602190D02*
X148713850Y-67640285D01*
X148713850Y-67640285D02*
X148790040Y-67678380D01*
X148790040Y-67678380D02*
X148942421Y-67678380D01*
X148942421Y-67678380D02*
X149018612Y-67640285D01*
X149018612Y-67640285D02*
X149056707Y-67602190D01*
X149056707Y-67602190D02*
X149094802Y-67525999D01*
X149094802Y-68135523D02*
X149132897Y-68059333D01*
X149132897Y-68059333D02*
X149170993Y-68021238D01*
X149170993Y-68021238D02*
X149247183Y-67983142D01*
X149247183Y-67983142D02*
X149285278Y-67983142D01*
X149285278Y-67983142D02*
X149361469Y-68021238D01*
X149361469Y-68021238D02*
X149399564Y-68059333D01*
X149399564Y-68059333D02*
X149437659Y-68135523D01*
X149437659Y-68135523D02*
X149437659Y-68287904D01*
X149437659Y-68287904D02*
X149399564Y-68364095D01*
X149399564Y-68364095D02*
X149361469Y-68402190D01*
X149361469Y-68402190D02*
X149285278Y-68440285D01*
X149285278Y-68440285D02*
X149247183Y-68440285D01*
X149247183Y-68440285D02*
X149170993Y-68402190D01*
X149170993Y-68402190D02*
X149132897Y-68364095D01*
X149132897Y-68364095D02*
X149094802Y-68287904D01*
X149094802Y-68287904D02*
X149094802Y-68135523D01*
X149094802Y-68135523D02*
X149056707Y-68059333D01*
X149056707Y-68059333D02*
X149018612Y-68021238D01*
X149018612Y-68021238D02*
X148942421Y-67983142D01*
X148942421Y-67983142D02*
X148790040Y-67983142D01*
X148790040Y-67983142D02*
X148713850Y-68021238D01*
X148713850Y-68021238D02*
X148675755Y-68059333D01*
X148675755Y-68059333D02*
X148637659Y-68135523D01*
X148637659Y-68135523D02*
X148637659Y-68287904D01*
X148637659Y-68287904D02*
X148675755Y-68364095D01*
X148675755Y-68364095D02*
X148713850Y-68402190D01*
X148713850Y-68402190D02*
X148790040Y-68440285D01*
X148790040Y-68440285D02*
X148942421Y-68440285D01*
X148942421Y-68440285D02*
X149018612Y-68402190D01*
X149018612Y-68402190D02*
X149056707Y-68364095D01*
X149056707Y-68364095D02*
X149094802Y-68287904D01*
X147349704Y-66326000D02*
X148149704Y-66326000D01*
X147425895Y-67164095D02*
X147387800Y-67125999D01*
X147387800Y-67125999D02*
X147349704Y-67011714D01*
X147349704Y-67011714D02*
X147349704Y-66935523D01*
X147349704Y-66935523D02*
X147387800Y-66821237D01*
X147387800Y-66821237D02*
X147463990Y-66745047D01*
X147463990Y-66745047D02*
X147540180Y-66706952D01*
X147540180Y-66706952D02*
X147692561Y-66668856D01*
X147692561Y-66668856D02*
X147806847Y-66668856D01*
X147806847Y-66668856D02*
X147959228Y-66706952D01*
X147959228Y-66706952D02*
X148035419Y-66745047D01*
X148035419Y-66745047D02*
X148111609Y-66821237D01*
X148111609Y-66821237D02*
X148149704Y-66935523D01*
X148149704Y-66935523D02*
X148149704Y-67011714D01*
X148149704Y-67011714D02*
X148111609Y-67125999D01*
X148111609Y-67125999D02*
X148073514Y-67164095D01*
X115896419Y-80489333D02*
X115848800Y-80441714D01*
X115848800Y-80441714D02*
X115801180Y-80298857D01*
X115801180Y-80298857D02*
X115801180Y-80203619D01*
X115801180Y-80203619D02*
X115848800Y-80060762D01*
X115848800Y-80060762D02*
X115944038Y-79965524D01*
X115944038Y-79965524D02*
X116039276Y-79917905D01*
X116039276Y-79917905D02*
X116229752Y-79870286D01*
X116229752Y-79870286D02*
X116372609Y-79870286D01*
X116372609Y-79870286D02*
X116563085Y-79917905D01*
X116563085Y-79917905D02*
X116658323Y-79965524D01*
X116658323Y-79965524D02*
X116753561Y-80060762D01*
X116753561Y-80060762D02*
X116801180Y-80203619D01*
X116801180Y-80203619D02*
X116801180Y-80298857D01*
X116801180Y-80298857D02*
X116753561Y-80441714D01*
X116753561Y-80441714D02*
X116705942Y-80489333D01*
X115801180Y-81441714D02*
X115801180Y-80870286D01*
X115801180Y-81156000D02*
X116801180Y-81156000D01*
X116801180Y-81156000D02*
X116658323Y-81060762D01*
X116658323Y-81060762D02*
X116563085Y-80965524D01*
X116563085Y-80965524D02*
X116515466Y-80870286D01*
X164603333Y-80821580D02*
X164555714Y-80869200D01*
X164555714Y-80869200D02*
X164412857Y-80916819D01*
X164412857Y-80916819D02*
X164317619Y-80916819D01*
X164317619Y-80916819D02*
X164174762Y-80869200D01*
X164174762Y-80869200D02*
X164079524Y-80773961D01*
X164079524Y-80773961D02*
X164031905Y-80678723D01*
X164031905Y-80678723D02*
X163984286Y-80488247D01*
X163984286Y-80488247D02*
X163984286Y-80345390D01*
X163984286Y-80345390D02*
X164031905Y-80154914D01*
X164031905Y-80154914D02*
X164079524Y-80059676D01*
X164079524Y-80059676D02*
X164174762Y-79964438D01*
X164174762Y-79964438D02*
X164317619Y-79916819D01*
X164317619Y-79916819D02*
X164412857Y-79916819D01*
X164412857Y-79916819D02*
X164555714Y-79964438D01*
X164555714Y-79964438D02*
X164603333Y-80012057D01*
X165460476Y-80250152D02*
X165460476Y-80916819D01*
X165222381Y-79869200D02*
X164984286Y-80583485D01*
X164984286Y-80583485D02*
X165603333Y-80583485D01*
X111991180Y-61233333D02*
X111991180Y-60757143D01*
X111991180Y-60757143D02*
X112991180Y-60757143D01*
X111991180Y-62138095D02*
X112467371Y-61804762D01*
X111991180Y-61566667D02*
X112991180Y-61566667D01*
X112991180Y-61566667D02*
X112991180Y-61947619D01*
X112991180Y-61947619D02*
X112943561Y-62042857D01*
X112943561Y-62042857D02*
X112895942Y-62090476D01*
X112895942Y-62090476D02*
X112800704Y-62138095D01*
X112800704Y-62138095D02*
X112657847Y-62138095D01*
X112657847Y-62138095D02*
X112562609Y-62090476D01*
X112562609Y-62090476D02*
X112514990Y-62042857D01*
X112514990Y-62042857D02*
X112467371Y-61947619D01*
X112467371Y-61947619D02*
X112467371Y-61566667D01*
X111991180Y-63090476D02*
X111991180Y-62519048D01*
X111991180Y-62804762D02*
X112991180Y-62804762D01*
X112991180Y-62804762D02*
X112848323Y-62709524D01*
X112848323Y-62709524D02*
X112753085Y-62614286D01*
X112753085Y-62614286D02*
X112705466Y-62519048D01*
X139203333Y-80821580D02*
X139155714Y-80869200D01*
X139155714Y-80869200D02*
X139012857Y-80916819D01*
X139012857Y-80916819D02*
X138917619Y-80916819D01*
X138917619Y-80916819D02*
X138774762Y-80869200D01*
X138774762Y-80869200D02*
X138679524Y-80773961D01*
X138679524Y-80773961D02*
X138631905Y-80678723D01*
X138631905Y-80678723D02*
X138584286Y-80488247D01*
X138584286Y-80488247D02*
X138584286Y-80345390D01*
X138584286Y-80345390D02*
X138631905Y-80154914D01*
X138631905Y-80154914D02*
X138679524Y-80059676D01*
X138679524Y-80059676D02*
X138774762Y-79964438D01*
X138774762Y-79964438D02*
X138917619Y-79916819D01*
X138917619Y-79916819D02*
X139012857Y-79916819D01*
X139012857Y-79916819D02*
X139155714Y-79964438D01*
X139155714Y-79964438D02*
X139203333Y-80012057D01*
X139536667Y-79916819D02*
X140155714Y-79916819D01*
X140155714Y-79916819D02*
X139822381Y-80297771D01*
X139822381Y-80297771D02*
X139965238Y-80297771D01*
X139965238Y-80297771D02*
X140060476Y-80345390D01*
X140060476Y-80345390D02*
X140108095Y-80393009D01*
X140108095Y-80393009D02*
X140155714Y-80488247D01*
X140155714Y-80488247D02*
X140155714Y-80726342D01*
X140155714Y-80726342D02*
X140108095Y-80821580D01*
X140108095Y-80821580D02*
X140060476Y-80869200D01*
X140060476Y-80869200D02*
X139965238Y-80916819D01*
X139965238Y-80916819D02*
X139679524Y-80916819D01*
X139679524Y-80916819D02*
X139584286Y-80869200D01*
X139584286Y-80869200D02*
X139536667Y-80821580D01*
X112015180Y-73933333D02*
X112015180Y-73457143D01*
X112015180Y-73457143D02*
X113015180Y-73457143D01*
X112015180Y-74838095D02*
X112491371Y-74504762D01*
X112015180Y-74266667D02*
X113015180Y-74266667D01*
X113015180Y-74266667D02*
X113015180Y-74647619D01*
X113015180Y-74647619D02*
X112967561Y-74742857D01*
X112967561Y-74742857D02*
X112919942Y-74790476D01*
X112919942Y-74790476D02*
X112824704Y-74838095D01*
X112824704Y-74838095D02*
X112681847Y-74838095D01*
X112681847Y-74838095D02*
X112586609Y-74790476D01*
X112586609Y-74790476D02*
X112538990Y-74742857D01*
X112538990Y-74742857D02*
X112491371Y-74647619D01*
X112491371Y-74647619D02*
X112491371Y-74266667D01*
X112919942Y-75219048D02*
X112967561Y-75266667D01*
X112967561Y-75266667D02*
X113015180Y-75361905D01*
X113015180Y-75361905D02*
X113015180Y-75600000D01*
X113015180Y-75600000D02*
X112967561Y-75695238D01*
X112967561Y-75695238D02*
X112919942Y-75742857D01*
X112919942Y-75742857D02*
X112824704Y-75790476D01*
X112824704Y-75790476D02*
X112729466Y-75790476D01*
X112729466Y-75790476D02*
X112586609Y-75742857D01*
X112586609Y-75742857D02*
X112015180Y-75171429D01*
X112015180Y-75171429D02*
X112015180Y-75790476D01*
X141296419Y-80489333D02*
X141248800Y-80441714D01*
X141248800Y-80441714D02*
X141201180Y-80298857D01*
X141201180Y-80298857D02*
X141201180Y-80203619D01*
X141201180Y-80203619D02*
X141248800Y-80060762D01*
X141248800Y-80060762D02*
X141344038Y-79965524D01*
X141344038Y-79965524D02*
X141439276Y-79917905D01*
X141439276Y-79917905D02*
X141629752Y-79870286D01*
X141629752Y-79870286D02*
X141772609Y-79870286D01*
X141772609Y-79870286D02*
X141963085Y-79917905D01*
X141963085Y-79917905D02*
X142058323Y-79965524D01*
X142058323Y-79965524D02*
X142153561Y-80060762D01*
X142153561Y-80060762D02*
X142201180Y-80203619D01*
X142201180Y-80203619D02*
X142201180Y-80298857D01*
X142201180Y-80298857D02*
X142153561Y-80441714D01*
X142153561Y-80441714D02*
X142105942Y-80489333D01*
X142105942Y-80870286D02*
X142153561Y-80917905D01*
X142153561Y-80917905D02*
X142201180Y-81013143D01*
X142201180Y-81013143D02*
X142201180Y-81251238D01*
X142201180Y-81251238D02*
X142153561Y-81346476D01*
X142153561Y-81346476D02*
X142105942Y-81394095D01*
X142105942Y-81394095D02*
X142010704Y-81441714D01*
X142010704Y-81441714D02*
X141915466Y-81441714D01*
X141915466Y-81441714D02*
X141772609Y-81394095D01*
X141772609Y-81394095D02*
X141201180Y-80822667D01*
X141201180Y-80822667D02*
X141201180Y-81441714D01*
X130178476Y-82690819D02*
X130845142Y-83690819D01*
X130845142Y-82690819D02*
X130178476Y-83690819D01*
X131749904Y-83690819D02*
X131178476Y-83690819D01*
X131464190Y-83690819D02*
X131464190Y-82690819D01*
X131464190Y-82690819D02*
X131368952Y-82833676D01*
X131368952Y-82833676D02*
X131273714Y-82928914D01*
X131273714Y-82928914D02*
X131178476Y-82976533D01*
X155911809Y-83214628D02*
X155911809Y-83690819D01*
X155578476Y-82690819D02*
X155911809Y-83214628D01*
X155911809Y-83214628D02*
X156245142Y-82690819D01*
X157102285Y-83690819D02*
X156530857Y-83690819D01*
X156816571Y-83690819D02*
X156816571Y-82690819D01*
X156816571Y-82690819D02*
X156721333Y-82833676D01*
X156721333Y-82833676D02*
X156626095Y-82928914D01*
X156626095Y-82928914D02*
X156530857Y-82976533D01*
X138415180Y-73338095D02*
X137605657Y-73338095D01*
X137605657Y-73338095D02*
X137510419Y-73385714D01*
X137510419Y-73385714D02*
X137462800Y-73433333D01*
X137462800Y-73433333D02*
X137415180Y-73528571D01*
X137415180Y-73528571D02*
X137415180Y-73719047D01*
X137415180Y-73719047D02*
X137462800Y-73814285D01*
X137462800Y-73814285D02*
X137510419Y-73861904D01*
X137510419Y-73861904D02*
X137605657Y-73909523D01*
X137605657Y-73909523D02*
X138415180Y-73909523D01*
X137415180Y-74385714D02*
X138415180Y-74385714D01*
X138415180Y-74385714D02*
X138415180Y-74623809D01*
X138415180Y-74623809D02*
X138367561Y-74766666D01*
X138367561Y-74766666D02*
X138272323Y-74861904D01*
X138272323Y-74861904D02*
X138177085Y-74909523D01*
X138177085Y-74909523D02*
X137986609Y-74957142D01*
X137986609Y-74957142D02*
X137843752Y-74957142D01*
X137843752Y-74957142D02*
X137653276Y-74909523D01*
X137653276Y-74909523D02*
X137558038Y-74861904D01*
X137558038Y-74861904D02*
X137462800Y-74766666D01*
X137462800Y-74766666D02*
X137415180Y-74623809D01*
X137415180Y-74623809D02*
X137415180Y-74385714D01*
X138319942Y-75338095D02*
X138367561Y-75385714D01*
X138367561Y-75385714D02*
X138415180Y-75480952D01*
X138415180Y-75480952D02*
X138415180Y-75719047D01*
X138415180Y-75719047D02*
X138367561Y-75814285D01*
X138367561Y-75814285D02*
X138319942Y-75861904D01*
X138319942Y-75861904D02*
X138224704Y-75909523D01*
X138224704Y-75909523D02*
X138129466Y-75909523D01*
X138129466Y-75909523D02*
X137986609Y-75861904D01*
X137986609Y-75861904D02*
X137415180Y-75290476D01*
X137415180Y-75290476D02*
X137415180Y-75909523D01*
X138391180Y-60638095D02*
X137581657Y-60638095D01*
X137581657Y-60638095D02*
X137486419Y-60685714D01*
X137486419Y-60685714D02*
X137438800Y-60733333D01*
X137438800Y-60733333D02*
X137391180Y-60828571D01*
X137391180Y-60828571D02*
X137391180Y-61019047D01*
X137391180Y-61019047D02*
X137438800Y-61114285D01*
X137438800Y-61114285D02*
X137486419Y-61161904D01*
X137486419Y-61161904D02*
X137581657Y-61209523D01*
X137581657Y-61209523D02*
X138391180Y-61209523D01*
X137391180Y-61685714D02*
X138391180Y-61685714D01*
X138391180Y-61685714D02*
X138391180Y-61923809D01*
X138391180Y-61923809D02*
X138343561Y-62066666D01*
X138343561Y-62066666D02*
X138248323Y-62161904D01*
X138248323Y-62161904D02*
X138153085Y-62209523D01*
X138153085Y-62209523D02*
X137962609Y-62257142D01*
X137962609Y-62257142D02*
X137819752Y-62257142D01*
X137819752Y-62257142D02*
X137629276Y-62209523D01*
X137629276Y-62209523D02*
X137534038Y-62161904D01*
X137534038Y-62161904D02*
X137438800Y-62066666D01*
X137438800Y-62066666D02*
X137391180Y-61923809D01*
X137391180Y-61923809D02*
X137391180Y-61685714D01*
X137391180Y-63209523D02*
X137391180Y-62638095D01*
X137391180Y-62923809D02*
X138391180Y-62923809D01*
X138391180Y-62923809D02*
X138248323Y-62828571D01*
X138248323Y-62828571D02*
X138153085Y-62733333D01*
X138153085Y-62733333D02*
X138105466Y-62638095D01*
D11*
%TO.C,J5*%
X96518000Y-75334000D02*
X111218000Y-75334000D01*
X96518000Y-84534000D02*
X96518000Y-75334000D01*
X105318000Y-84534000D02*
X96518000Y-84534000D01*
X110368000Y-75134000D02*
X111418000Y-75134000D01*
X111218000Y-75334000D02*
X111218000Y-77934000D01*
X111218000Y-81834000D02*
X111218000Y-84534000D01*
X111218000Y-84534000D02*
X109318000Y-84534000D01*
X111418000Y-76184000D02*
X111418000Y-75134000D01*
%TO.C,J1*%
X126610000Y-96130000D02*
X127940000Y-96130000D01*
X126610000Y-97460000D02*
X126610000Y-96130000D01*
X129210000Y-96130000D02*
X147050000Y-96130000D01*
X129210000Y-98790000D02*
X129210000Y-96130000D01*
X129210000Y-98790000D02*
X147050000Y-98790000D01*
X147050000Y-98790000D02*
X147050000Y-96130000D01*
%TO.C,J3*%
X149470000Y-96130000D02*
X150800000Y-96130000D01*
X149470000Y-97460000D02*
X149470000Y-96130000D01*
X152070000Y-96130000D02*
X164830000Y-96130000D01*
X152070000Y-98790000D02*
X152070000Y-96130000D01*
X152070000Y-98790000D02*
X164830000Y-98790000D01*
X164830000Y-98790000D02*
X164830000Y-96130000D01*
%TO.C,J2*%
X117466000Y-47870000D02*
X118796000Y-47870000D01*
X117466000Y-49200000D02*
X117466000Y-47870000D01*
X120066000Y-47870000D02*
X142986000Y-47870000D01*
X120066000Y-50530000D02*
X120066000Y-47870000D01*
X120066000Y-50530000D02*
X142986000Y-50530000D01*
X142986000Y-50530000D02*
X142986000Y-47870000D01*
%TO.C,J4*%
X144390000Y-47870000D02*
X145720000Y-47870000D01*
X144390000Y-49200000D02*
X144390000Y-47870000D01*
X146990000Y-47870000D02*
X164830000Y-47870000D01*
X146990000Y-50530000D02*
X146990000Y-47870000D01*
X146990000Y-50530000D02*
X164830000Y-50530000D01*
X164830000Y-50530000D02*
X164830000Y-47870000D01*
%TO.C,C1*%
X114886000Y-78036000D02*
X115201000Y-78036000D01*
X114886000Y-83276000D02*
X114886000Y-78036000D01*
X114886000Y-83276000D02*
X115201000Y-83276000D01*
X117311000Y-78036000D02*
X117626000Y-78036000D01*
X117311000Y-83276000D02*
X117626000Y-83276000D01*
X117626000Y-83276000D02*
X117626000Y-78036000D01*
%TO.C,C4*%
X160346000Y-83703000D02*
X159542000Y-83703000D01*
X160577000Y-83663000D02*
X159311000Y-83663000D01*
X160746000Y-83623000D02*
X159142000Y-83623000D01*
X160884000Y-83583000D02*
X159004000Y-83583000D01*
X161003000Y-83543000D02*
X158885000Y-83543000D01*
X161109000Y-83503000D02*
X158779000Y-83503000D01*
X161206000Y-83463000D02*
X158682000Y-83463000D01*
X161294000Y-83423000D02*
X158594000Y-83423000D01*
X161376000Y-83383000D02*
X158512000Y-83383000D01*
X161453000Y-83343000D02*
X158435000Y-83343000D01*
X161525000Y-83303000D02*
X158363000Y-83303000D01*
X161594000Y-83263000D02*
X158294000Y-83263000D01*
X161658000Y-83223000D02*
X158230000Y-83223000D01*
X161720000Y-83183000D02*
X158168000Y-83183000D01*
X161778000Y-83143000D02*
X158110000Y-83143000D01*
X161834000Y-83103000D02*
X158054000Y-83103000D01*
X161888000Y-83063000D02*
X158000000Y-83063000D01*
X161939000Y-83023000D02*
X157949000Y-83023000D01*
X161988000Y-82983000D02*
X157900000Y-82983000D01*
X162036000Y-82943000D02*
X157852000Y-82943000D01*
X162081000Y-82903000D02*
X157807000Y-82903000D01*
X162126000Y-82863000D02*
X157762000Y-82863000D01*
X162168000Y-82823000D02*
X157720000Y-82823000D01*
X162209000Y-82783000D02*
X157679000Y-82783000D01*
X158904000Y-82743000D02*
X157639000Y-82743000D01*
X162249000Y-82743000D02*
X160984000Y-82743000D01*
X158904000Y-82703000D02*
X157601000Y-82703000D01*
X162287000Y-82703000D02*
X160984000Y-82703000D01*
X158904000Y-82663000D02*
X157564000Y-82663000D01*
X162324000Y-82663000D02*
X160984000Y-82663000D01*
X158904000Y-82623000D02*
X157528000Y-82623000D01*
X162360000Y-82623000D02*
X160984000Y-82623000D01*
X158904000Y-82583000D02*
X157494000Y-82583000D01*
X162394000Y-82583000D02*
X160984000Y-82583000D01*
X158904000Y-82543000D02*
X157460000Y-82543000D01*
X162428000Y-82543000D02*
X160984000Y-82543000D01*
X158904000Y-82503000D02*
X157428000Y-82503000D01*
X162460000Y-82503000D02*
X160984000Y-82503000D01*
X158904000Y-82463000D02*
X157396000Y-82463000D01*
X162492000Y-82463000D02*
X160984000Y-82463000D01*
X158904000Y-82423000D02*
X157366000Y-82423000D01*
X162522000Y-82423000D02*
X160984000Y-82423000D01*
X158904000Y-82383000D02*
X157337000Y-82383000D01*
X162551000Y-82383000D02*
X160984000Y-82383000D01*
X158904000Y-82343000D02*
X157308000Y-82343000D01*
X162580000Y-82343000D02*
X160984000Y-82343000D01*
X158904000Y-82303000D02*
X157280000Y-82303000D01*
X162608000Y-82303000D02*
X160984000Y-82303000D01*
X158904000Y-82263000D02*
X157254000Y-82263000D01*
X162634000Y-82263000D02*
X160984000Y-82263000D01*
X158904000Y-82223000D02*
X157228000Y-82223000D01*
X162660000Y-82223000D02*
X160984000Y-82223000D01*
X158904000Y-82183000D02*
X157202000Y-82183000D01*
X162686000Y-82183000D02*
X160984000Y-82183000D01*
X158904000Y-82143000D02*
X157178000Y-82143000D01*
X162710000Y-82143000D02*
X160984000Y-82143000D01*
X158904000Y-82103000D02*
X157154000Y-82103000D01*
X162734000Y-82103000D02*
X160984000Y-82103000D01*
X158904000Y-82063000D02*
X157132000Y-82063000D01*
X162756000Y-82063000D02*
X160984000Y-82063000D01*
X158904000Y-82023000D02*
X157110000Y-82023000D01*
X162778000Y-82023000D02*
X160984000Y-82023000D01*
X158904000Y-81983000D02*
X157088000Y-81983000D01*
X162800000Y-81983000D02*
X160984000Y-81983000D01*
X158904000Y-81943000D02*
X157068000Y-81943000D01*
X162820000Y-81943000D02*
X160984000Y-81943000D01*
X158904000Y-81903000D02*
X157048000Y-81903000D01*
X162840000Y-81903000D02*
X160984000Y-81903000D01*
X158904000Y-81863000D02*
X157028000Y-81863000D01*
X162860000Y-81863000D02*
X160984000Y-81863000D01*
X158904000Y-81823000D02*
X157010000Y-81823000D01*
X162878000Y-81823000D02*
X160984000Y-81823000D01*
X158904000Y-81783000D02*
X156992000Y-81783000D01*
X162896000Y-81783000D02*
X160984000Y-81783000D01*
X158904000Y-81743000D02*
X156974000Y-81743000D01*
X162914000Y-81743000D02*
X160984000Y-81743000D01*
X158904000Y-81703000D02*
X156958000Y-81703000D01*
X162930000Y-81703000D02*
X160984000Y-81703000D01*
X158904000Y-81663000D02*
X156942000Y-81663000D01*
X162946000Y-81663000D02*
X160984000Y-81663000D01*
X158904000Y-81623000D02*
X156926000Y-81623000D01*
X162962000Y-81623000D02*
X160984000Y-81623000D01*
X158904000Y-81583000D02*
X156911000Y-81583000D01*
X162977000Y-81583000D02*
X160984000Y-81583000D01*
X158904000Y-81543000D02*
X156897000Y-81543000D01*
X162991000Y-81543000D02*
X160984000Y-81543000D01*
X158904000Y-81503000D02*
X156883000Y-81503000D01*
X163005000Y-81503000D02*
X160984000Y-81503000D01*
X158904000Y-81463000D02*
X156870000Y-81463000D01*
X163018000Y-81463000D02*
X160984000Y-81463000D01*
X158904000Y-81423000D02*
X156858000Y-81423000D01*
X163030000Y-81423000D02*
X160984000Y-81423000D01*
X158904000Y-81383000D02*
X156846000Y-81383000D01*
X163042000Y-81383000D02*
X160984000Y-81383000D01*
X158904000Y-81343000D02*
X156834000Y-81343000D01*
X163054000Y-81343000D02*
X160984000Y-81343000D01*
X158904000Y-81303000D02*
X156823000Y-81303000D01*
X163065000Y-81303000D02*
X160984000Y-81303000D01*
X158904000Y-81263000D02*
X156813000Y-81263000D01*
X163075000Y-81263000D02*
X160984000Y-81263000D01*
X158904000Y-81223000D02*
X156803000Y-81223000D01*
X163085000Y-81223000D02*
X160984000Y-81223000D01*
X158904000Y-81183000D02*
X156794000Y-81183000D01*
X163094000Y-81183000D02*
X160984000Y-81183000D01*
X158904000Y-81142000D02*
X156785000Y-81142000D01*
X163103000Y-81142000D02*
X160984000Y-81142000D01*
X158904000Y-81102000D02*
X156777000Y-81102000D01*
X163111000Y-81102000D02*
X160984000Y-81102000D01*
X158904000Y-81062000D02*
X156769000Y-81062000D01*
X163119000Y-81062000D02*
X160984000Y-81062000D01*
X158904000Y-81022000D02*
X156762000Y-81022000D01*
X163126000Y-81022000D02*
X160984000Y-81022000D01*
X158904000Y-80982000D02*
X156755000Y-80982000D01*
X163133000Y-80982000D02*
X160984000Y-80982000D01*
X158904000Y-80942000D02*
X156749000Y-80942000D01*
X163139000Y-80942000D02*
X160984000Y-80942000D01*
X158904000Y-80902000D02*
X156743000Y-80902000D01*
X163145000Y-80902000D02*
X160984000Y-80902000D01*
X158904000Y-80862000D02*
X156738000Y-80862000D01*
X163150000Y-80862000D02*
X160984000Y-80862000D01*
X158904000Y-80822000D02*
X156733000Y-80822000D01*
X163155000Y-80822000D02*
X160984000Y-80822000D01*
X158904000Y-80782000D02*
X156729000Y-80782000D01*
X163159000Y-80782000D02*
X160984000Y-80782000D01*
X158904000Y-80742000D02*
X156726000Y-80742000D01*
X163162000Y-80742000D02*
X160984000Y-80742000D01*
X158904000Y-80702000D02*
X156722000Y-80702000D01*
X163166000Y-80702000D02*
X160984000Y-80702000D01*
X163168000Y-80662000D02*
X156720000Y-80662000D01*
X163171000Y-80622000D02*
X156717000Y-80622000D01*
X163172000Y-80582000D02*
X156716000Y-80582000D01*
X163174000Y-80542000D02*
X156714000Y-80542000D01*
X163174000Y-80502000D02*
X156714000Y-80502000D01*
X163174000Y-80462000D02*
X156714000Y-80462000D01*
X162098000Y-77276759D02*
X161468000Y-77276759D01*
X161783000Y-76961759D02*
X161783000Y-77591759D01*
X163214000Y-80462000D02*
G75*
G02*
X156674000Y-80462000I-3270000J0D01*
G01*
X156674000Y-80462000D02*
G75*
G02*
X163214000Y-80462000I3270000J0D01*
G01*
%TO.C,LR1*%
X113910000Y-60570000D02*
X113910000Y-63230000D01*
X131750000Y-60570000D02*
X113910000Y-60570000D01*
X131750000Y-60570000D02*
X131750000Y-63230000D01*
X131750000Y-63230000D02*
X113910000Y-63230000D01*
X134350000Y-61900000D02*
X134350000Y-63230000D01*
X134350000Y-63230000D02*
X133020000Y-63230000D01*
%TO.C,C3*%
X135200000Y-83703000D02*
X134396000Y-83703000D01*
X135431000Y-83663000D02*
X134165000Y-83663000D01*
X135600000Y-83623000D02*
X133996000Y-83623000D01*
X135738000Y-83583000D02*
X133858000Y-83583000D01*
X135857000Y-83543000D02*
X133739000Y-83543000D01*
X135963000Y-83503000D02*
X133633000Y-83503000D01*
X136060000Y-83463000D02*
X133536000Y-83463000D01*
X136148000Y-83423000D02*
X133448000Y-83423000D01*
X136230000Y-83383000D02*
X133366000Y-83383000D01*
X136307000Y-83343000D02*
X133289000Y-83343000D01*
X136379000Y-83303000D02*
X133217000Y-83303000D01*
X136448000Y-83263000D02*
X133148000Y-83263000D01*
X136512000Y-83223000D02*
X133084000Y-83223000D01*
X136574000Y-83183000D02*
X133022000Y-83183000D01*
X136632000Y-83143000D02*
X132964000Y-83143000D01*
X136688000Y-83103000D02*
X132908000Y-83103000D01*
X136742000Y-83063000D02*
X132854000Y-83063000D01*
X136793000Y-83023000D02*
X132803000Y-83023000D01*
X136842000Y-82983000D02*
X132754000Y-82983000D01*
X136890000Y-82943000D02*
X132706000Y-82943000D01*
X136935000Y-82903000D02*
X132661000Y-82903000D01*
X136980000Y-82863000D02*
X132616000Y-82863000D01*
X137022000Y-82823000D02*
X132574000Y-82823000D01*
X137063000Y-82783000D02*
X132533000Y-82783000D01*
X133758000Y-82743000D02*
X132493000Y-82743000D01*
X137103000Y-82743000D02*
X135838000Y-82743000D01*
X133758000Y-82703000D02*
X132455000Y-82703000D01*
X137141000Y-82703000D02*
X135838000Y-82703000D01*
X133758000Y-82663000D02*
X132418000Y-82663000D01*
X137178000Y-82663000D02*
X135838000Y-82663000D01*
X133758000Y-82623000D02*
X132382000Y-82623000D01*
X137214000Y-82623000D02*
X135838000Y-82623000D01*
X133758000Y-82583000D02*
X132348000Y-82583000D01*
X137248000Y-82583000D02*
X135838000Y-82583000D01*
X133758000Y-82543000D02*
X132314000Y-82543000D01*
X137282000Y-82543000D02*
X135838000Y-82543000D01*
X133758000Y-82503000D02*
X132282000Y-82503000D01*
X137314000Y-82503000D02*
X135838000Y-82503000D01*
X133758000Y-82463000D02*
X132250000Y-82463000D01*
X137346000Y-82463000D02*
X135838000Y-82463000D01*
X133758000Y-82423000D02*
X132220000Y-82423000D01*
X137376000Y-82423000D02*
X135838000Y-82423000D01*
X133758000Y-82383000D02*
X132191000Y-82383000D01*
X137405000Y-82383000D02*
X135838000Y-82383000D01*
X133758000Y-82343000D02*
X132162000Y-82343000D01*
X137434000Y-82343000D02*
X135838000Y-82343000D01*
X133758000Y-82303000D02*
X132134000Y-82303000D01*
X137462000Y-82303000D02*
X135838000Y-82303000D01*
X133758000Y-82263000D02*
X132108000Y-82263000D01*
X137488000Y-82263000D02*
X135838000Y-82263000D01*
X133758000Y-82223000D02*
X132082000Y-82223000D01*
X137514000Y-82223000D02*
X135838000Y-82223000D01*
X133758000Y-82183000D02*
X132056000Y-82183000D01*
X137540000Y-82183000D02*
X135838000Y-82183000D01*
X133758000Y-82143000D02*
X132032000Y-82143000D01*
X137564000Y-82143000D02*
X135838000Y-82143000D01*
X133758000Y-82103000D02*
X132008000Y-82103000D01*
X137588000Y-82103000D02*
X135838000Y-82103000D01*
X133758000Y-82063000D02*
X131986000Y-82063000D01*
X137610000Y-82063000D02*
X135838000Y-82063000D01*
X133758000Y-82023000D02*
X131964000Y-82023000D01*
X137632000Y-82023000D02*
X135838000Y-82023000D01*
X133758000Y-81983000D02*
X131942000Y-81983000D01*
X137654000Y-81983000D02*
X135838000Y-81983000D01*
X133758000Y-81943000D02*
X131922000Y-81943000D01*
X137674000Y-81943000D02*
X135838000Y-81943000D01*
X133758000Y-81903000D02*
X131902000Y-81903000D01*
X137694000Y-81903000D02*
X135838000Y-81903000D01*
X133758000Y-81863000D02*
X131882000Y-81863000D01*
X137714000Y-81863000D02*
X135838000Y-81863000D01*
X133758000Y-81823000D02*
X131864000Y-81823000D01*
X137732000Y-81823000D02*
X135838000Y-81823000D01*
X133758000Y-81783000D02*
X131846000Y-81783000D01*
X137750000Y-81783000D02*
X135838000Y-81783000D01*
X133758000Y-81743000D02*
X131828000Y-81743000D01*
X137768000Y-81743000D02*
X135838000Y-81743000D01*
X133758000Y-81703000D02*
X131812000Y-81703000D01*
X137784000Y-81703000D02*
X135838000Y-81703000D01*
X133758000Y-81663000D02*
X131796000Y-81663000D01*
X137800000Y-81663000D02*
X135838000Y-81663000D01*
X133758000Y-81623000D02*
X131780000Y-81623000D01*
X137816000Y-81623000D02*
X135838000Y-81623000D01*
X133758000Y-81583000D02*
X131765000Y-81583000D01*
X137831000Y-81583000D02*
X135838000Y-81583000D01*
X133758000Y-81543000D02*
X131751000Y-81543000D01*
X137845000Y-81543000D02*
X135838000Y-81543000D01*
X133758000Y-81503000D02*
X131737000Y-81503000D01*
X137859000Y-81503000D02*
X135838000Y-81503000D01*
X133758000Y-81463000D02*
X131724000Y-81463000D01*
X137872000Y-81463000D02*
X135838000Y-81463000D01*
X133758000Y-81423000D02*
X131712000Y-81423000D01*
X137884000Y-81423000D02*
X135838000Y-81423000D01*
X133758000Y-81383000D02*
X131700000Y-81383000D01*
X137896000Y-81383000D02*
X135838000Y-81383000D01*
X133758000Y-81343000D02*
X131688000Y-81343000D01*
X137908000Y-81343000D02*
X135838000Y-81343000D01*
X133758000Y-81303000D02*
X131677000Y-81303000D01*
X137919000Y-81303000D02*
X135838000Y-81303000D01*
X133758000Y-81263000D02*
X131667000Y-81263000D01*
X137929000Y-81263000D02*
X135838000Y-81263000D01*
X133758000Y-81223000D02*
X131657000Y-81223000D01*
X137939000Y-81223000D02*
X135838000Y-81223000D01*
X133758000Y-81183000D02*
X131648000Y-81183000D01*
X137948000Y-81183000D02*
X135838000Y-81183000D01*
X133758000Y-81142000D02*
X131639000Y-81142000D01*
X137957000Y-81142000D02*
X135838000Y-81142000D01*
X133758000Y-81102000D02*
X131631000Y-81102000D01*
X137965000Y-81102000D02*
X135838000Y-81102000D01*
X133758000Y-81062000D02*
X131623000Y-81062000D01*
X137973000Y-81062000D02*
X135838000Y-81062000D01*
X133758000Y-81022000D02*
X131616000Y-81022000D01*
X137980000Y-81022000D02*
X135838000Y-81022000D01*
X133758000Y-80982000D02*
X131609000Y-80982000D01*
X137987000Y-80982000D02*
X135838000Y-80982000D01*
X133758000Y-80942000D02*
X131603000Y-80942000D01*
X137993000Y-80942000D02*
X135838000Y-80942000D01*
X133758000Y-80902000D02*
X131597000Y-80902000D01*
X137999000Y-80902000D02*
X135838000Y-80902000D01*
X133758000Y-80862000D02*
X131592000Y-80862000D01*
X138004000Y-80862000D02*
X135838000Y-80862000D01*
X133758000Y-80822000D02*
X131587000Y-80822000D01*
X138009000Y-80822000D02*
X135838000Y-80822000D01*
X133758000Y-80782000D02*
X131583000Y-80782000D01*
X138013000Y-80782000D02*
X135838000Y-80782000D01*
X133758000Y-80742000D02*
X131580000Y-80742000D01*
X138016000Y-80742000D02*
X135838000Y-80742000D01*
X133758000Y-80702000D02*
X131576000Y-80702000D01*
X138020000Y-80702000D02*
X135838000Y-80702000D01*
X138022000Y-80662000D02*
X131574000Y-80662000D01*
X138025000Y-80622000D02*
X131571000Y-80622000D01*
X138026000Y-80582000D02*
X131570000Y-80582000D01*
X138028000Y-80542000D02*
X131568000Y-80542000D01*
X138028000Y-80502000D02*
X131568000Y-80502000D01*
X138028000Y-80462000D02*
X131568000Y-80462000D01*
X136952000Y-77276759D02*
X136322000Y-77276759D01*
X136637000Y-76961759D02*
X136637000Y-77591759D01*
X138068000Y-80462000D02*
G75*
G02*
X131528000Y-80462000I-3270000J0D01*
G01*
X131528000Y-80462000D02*
G75*
G02*
X138068000Y-80462000I3270000J0D01*
G01*
%TO.C,LR2*%
X113910000Y-73270000D02*
X115240000Y-73270000D01*
X113910000Y-74600000D02*
X113910000Y-73270000D01*
X116510000Y-73270000D02*
X134350000Y-73270000D01*
X116510000Y-75930000D02*
X116510000Y-73270000D01*
X116510000Y-75930000D02*
X134350000Y-75930000D01*
X134350000Y-75930000D02*
X134350000Y-73270000D01*
%TO.C,C2*%
X140286000Y-78036000D02*
X140601000Y-78036000D01*
X140286000Y-83276000D02*
X140286000Y-78036000D01*
X140286000Y-83276000D02*
X140601000Y-83276000D01*
X142711000Y-78036000D02*
X143026000Y-78036000D01*
X142711000Y-83276000D02*
X143026000Y-83276000D01*
X143026000Y-83276000D02*
X143026000Y-78036000D01*
%TO.C,X1*%
X118990000Y-84566000D02*
X118990000Y-83236000D01*
X120320000Y-84566000D02*
X118990000Y-84566000D01*
X121590000Y-81906000D02*
X129270000Y-81906000D01*
X121590000Y-84566000D02*
X121590000Y-81906000D01*
X121590000Y-84566000D02*
X129270000Y-84566000D01*
X129270000Y-84566000D02*
X129270000Y-81906000D01*
%TO.C,Y1*%
X144390000Y-84566000D02*
X144390000Y-83236000D01*
X145720000Y-84566000D02*
X144390000Y-84566000D01*
X146990000Y-81906000D02*
X154670000Y-81906000D01*
X146990000Y-84566000D02*
X146990000Y-81906000D01*
X146990000Y-84566000D02*
X154670000Y-84566000D01*
X154670000Y-84566000D02*
X154670000Y-81906000D01*
%TO.C,UD2*%
X139310000Y-73270000D02*
X140640000Y-73270000D01*
X139310000Y-74600000D02*
X139310000Y-73270000D01*
X141910000Y-73270000D02*
X159750000Y-73270000D01*
X141910000Y-75930000D02*
X141910000Y-73270000D01*
X141910000Y-75930000D02*
X159750000Y-75930000D01*
X159750000Y-75930000D02*
X159750000Y-73270000D01*
%TO.C,UD1*%
X139310000Y-60570000D02*
X139310000Y-63230000D01*
X157150000Y-60570000D02*
X139310000Y-60570000D01*
X157150000Y-60570000D02*
X157150000Y-63230000D01*
X157150000Y-63230000D02*
X139310000Y-63230000D01*
X159750000Y-61900000D02*
X159750000Y-63230000D01*
X159750000Y-63230000D02*
X158420000Y-63230000D01*
%TD*%
M02*
