%TF.GenerationSoftware,KiCad,Pcbnew,8.0.8*%
%TF.CreationDate,2026-03-12T22:53:47-04:00*%
%TF.ProjectId,Platform Arduino Shield,506c6174-666f-4726-9d20-41726475696e,rev?*%
%TF.SameCoordinates,Original*%
%TF.FileFunction,Copper,L1,Top*%
%TF.FilePolarity,Positive*%
%FSLAX46Y46*%
G04 Gerber Fmt 4.6, Leading zero omitted, Abs format (unit mm)*
G04 Created by KiCad (PCBNEW 8.0.8) date 2026-03-12 22:53:47*
%MOMM*%
%LPD*%
G01*
G04 APERTURE LIST*
G04 Aperture macros list*
%AMRoundRect*
0 Rectangle with rounded corners*
0 $1 Rounding radius*
0 $2 $3 $4 $5 $6 $7 $8 $9 X,Y pos of 4 corners*
0 Add a 4 corners polygon primitive as box body*
4,1,4,$2,$3,$4,$5,$6,$7,$8,$9,$2,$3,0*
0 Add four circle primitives for the rounded corners*
1,1,$1+$1,$2,$3*
1,1,$1+$1,$4,$5*
1,1,$1+$1,$6,$7*
1,1,$1+$1,$8,$9*
0 Add four rect primitives between the rounded corners*
20,1,$1+$1,$2,$3,$4,$5,0*
20,1,$1+$1,$4,$5,$6,$7,0*
20,1,$1+$1,$6,$7,$8,$9,0*
20,1,$1+$1,$8,$9,$2,$3,0*%
G04 Aperture macros list end*
%TA.AperFunction,ComponentPad*%
%ADD10R,3.500000X4.000000*%
%TD*%
%TA.AperFunction,ComponentPad*%
%ADD11RoundRect,0.750000X-0.750000X-1.000000X0.750000X-1.000000X0.750000X1.000000X-0.750000X1.000000X0*%
%TD*%
%TA.AperFunction,ComponentPad*%
%ADD12RoundRect,0.875000X-0.875000X-0.875000X0.875000X-0.875000X0.875000X0.875000X-0.875000X0.875000X0*%
%TD*%
%TA.AperFunction,ComponentPad*%
%ADD13R,1.700000X1.700000*%
%TD*%
%TA.AperFunction,ComponentPad*%
%ADD14O,1.700000X1.700000*%
%TD*%
%TA.AperFunction,ComponentPad*%
%ADD15C,1.600000*%
%TD*%
%TA.AperFunction,ComponentPad*%
%ADD16R,1.600000X1.600000*%
%TD*%
%TA.AperFunction,Conductor*%
%ADD17C,1.750000*%
%TD*%
%TA.AperFunction,Conductor*%
%ADD18C,0.500000*%
%TD*%
%TA.AperFunction,Conductor*%
%ADD19C,1.000000*%
%TD*%
G04 APERTURE END LIST*
D10*
%TO.P,J5,1*%
%TO.N,/VMOT*%
X110318000Y-79934000D03*
D11*
%TO.P,J5,2*%
%TO.N,GND*%
X104318000Y-79934000D03*
D12*
%TO.P,J5,MP,MountPin*%
%TO.N,unconnected-(J5-MountPin-PadMP)*%
X107268000Y-84934000D03*
%TD*%
D13*
%TO.P,J1,1,Pin_1*%
%TO.N,unconnected-(J1-Pin_1-Pad1)*%
X127940000Y-97460000D03*
D14*
%TO.P,J1,2,Pin_2*%
%TO.N,/IOREF*%
X130480000Y-97460000D03*
%TO.P,J1,3,Pin_3*%
%TO.N,/~{RESET}*%
X133020000Y-97460000D03*
%TO.P,J1,4,Pin_4*%
%TO.N,+3V3*%
X135560000Y-97460000D03*
%TO.P,J1,5,Pin_5*%
%TO.N,+5V*%
X138100000Y-97460000D03*
%TO.P,J1,6,Pin_6*%
%TO.N,GND*%
X140640000Y-97460000D03*
%TO.P,J1,7,Pin_7*%
X143180000Y-97460000D03*
%TO.P,J1,8,Pin_8*%
%TO.N,VCC*%
X145720000Y-97460000D03*
%TD*%
D13*
%TO.P,J3,1,Pin_1*%
%TO.N,/A0*%
X150800000Y-97460000D03*
D14*
%TO.P,J3,2,Pin_2*%
%TO.N,/A1*%
X153340000Y-97460000D03*
%TO.P,J3,3,Pin_3*%
%TO.N,/A2*%
X155880000Y-97460000D03*
%TO.P,J3,4,Pin_4*%
%TO.N,/A3*%
X158420000Y-97460000D03*
%TO.P,J3,5,Pin_5*%
%TO.N,/SDA{slash}A4*%
X160960000Y-97460000D03*
%TO.P,J3,6,Pin_6*%
%TO.N,/SCL{slash}A5*%
X163500000Y-97460000D03*
%TD*%
D13*
%TO.P,J2,1,Pin_1*%
%TO.N,unconnected-(J2-Pin_1-Pad1)*%
X118796000Y-49200000D03*
D14*
%TO.P,J2,2,Pin_2*%
%TO.N,unconnected-(J2-Pin_2-Pad2)*%
X121336000Y-49200000D03*
%TO.P,J2,3,Pin_3*%
%TO.N,/AREF*%
X123876000Y-49200000D03*
%TO.P,J2,4,Pin_4*%
%TO.N,GND*%
X126416000Y-49200000D03*
%TO.P,J2,5,Pin_5*%
%TO.N,/13*%
X128956000Y-49200000D03*
%TO.P,J2,6,Pin_6*%
%TO.N,/12*%
X131496000Y-49200000D03*
%TO.P,J2,7,Pin_7*%
%TO.N,/\u002A11*%
X134036000Y-49200000D03*
%TO.P,J2,8,Pin_8*%
%TO.N,/\u002A10*%
X136576000Y-49200000D03*
%TO.P,J2,9,Pin_9*%
%TO.N,unconnected-(J2-Pin_9-Pad9)*%
X139116000Y-49200000D03*
%TO.P,J2,10,Pin_10*%
%TO.N,/8*%
X141656000Y-49200000D03*
%TD*%
D13*
%TO.P,J4,1,Pin_1*%
%TO.N,/7*%
X145720000Y-49200000D03*
D14*
%TO.P,J4,2,Pin_2*%
%TO.N,/\u002A6*%
X148260000Y-49200000D03*
%TO.P,J4,3,Pin_3*%
%TO.N,/\u002A5*%
X150800000Y-49200000D03*
%TO.P,J4,4,Pin_4*%
%TO.N,/4*%
X153340000Y-49200000D03*
%TO.P,J4,5,Pin_5*%
%TO.N,/\u002A3*%
X155880000Y-49200000D03*
%TO.P,J4,6,Pin_6*%
%TO.N,/2*%
X158420000Y-49200000D03*
%TO.P,J4,7,Pin_7*%
%TO.N,/TX{slash}1*%
X160960000Y-49200000D03*
%TO.P,J4,8,Pin_8*%
%TO.N,/RX{slash}0*%
X163500000Y-49200000D03*
%TD*%
D15*
%TO.P,C1,1*%
%TO.N,GND*%
X116256000Y-83156000D03*
%TO.P,C1,2*%
%TO.N,+5V*%
X116256000Y-78156000D03*
%TD*%
D16*
%TO.P,C4,1*%
%TO.N,/VMOT*%
X159944000Y-79212000D03*
D15*
%TO.P,C4,2*%
%TO.N,GND*%
X159944000Y-81712000D03*
%TD*%
D13*
%TO.P,LR1,1,Pin_1*%
%TO.N,/\u002A11*%
X133020000Y-61900000D03*
D14*
%TO.P,LR1,2,Pin_2*%
%TO.N,/\u002A3*%
X130480000Y-61900000D03*
%TO.P,LR1,3,Pin_3*%
%TO.N,/4*%
X127940000Y-61900000D03*
%TO.P,LR1,4,Pin_4*%
%TO.N,/\u002A5*%
X125400000Y-61900000D03*
%TO.P,LR1,5,Pin_5*%
%TO.N,Net-(LR1-Pin_5)*%
X122860000Y-61900000D03*
%TO.P,LR1,6,Pin_6*%
X120320000Y-61900000D03*
%TO.P,LR1,7,Pin_7*%
%TO.N,/12*%
X117780000Y-61900000D03*
%TO.P,LR1,8,Pin_8*%
%TO.N,/13*%
X115240000Y-61900000D03*
%TD*%
D16*
%TO.P,C3,1*%
%TO.N,/VMOT*%
X134798000Y-79212000D03*
D15*
%TO.P,C3,2*%
%TO.N,GND*%
X134798000Y-81712000D03*
%TD*%
D13*
%TO.P,LR2,1,Pin_1*%
%TO.N,GND*%
X115240000Y-74600000D03*
D14*
%TO.P,LR2,2,Pin_2*%
%TO.N,+5V*%
X117780000Y-74600000D03*
%TO.P,LR2,3,Pin_3*%
%TO.N,/LR_1B*%
X120320000Y-74600000D03*
%TO.P,LR2,4,Pin_4*%
%TO.N,/LR_1A*%
X122860000Y-74600000D03*
%TO.P,LR2,5,Pin_5*%
%TO.N,/LR_2A*%
X125400000Y-74600000D03*
%TO.P,LR2,6,Pin_6*%
%TO.N,/LR_2B*%
X127940000Y-74600000D03*
%TO.P,LR2,7,Pin_7*%
%TO.N,GND*%
X130480000Y-74600000D03*
%TO.P,LR2,8,Pin_8*%
%TO.N,/VMOT*%
X133020000Y-74600000D03*
%TD*%
D15*
%TO.P,C2,1*%
%TO.N,GND*%
X141656000Y-83156000D03*
%TO.P,C2,2*%
%TO.N,+5V*%
X141656000Y-78156000D03*
%TD*%
D13*
%TO.P,X1,1,Pin_1*%
%TO.N,/LR_1B*%
X120320000Y-83236000D03*
D14*
%TO.P,X1,2,Pin_2*%
%TO.N,/LR_2A*%
X122860000Y-83236000D03*
%TO.P,X1,3,Pin_3*%
%TO.N,/LR_1A*%
X125400000Y-83236000D03*
%TO.P,X1,4,Pin_4*%
%TO.N,/LR_2B*%
X127940000Y-83236000D03*
%TD*%
D13*
%TO.P,Y1,1,Pin_1*%
%TO.N,/1B*%
X145720000Y-83236000D03*
D14*
%TO.P,Y1,2,Pin_2*%
%TO.N,/2A*%
X148260000Y-83236000D03*
%TO.P,Y1,3,Pin_3*%
%TO.N,/1A*%
X150800000Y-83236000D03*
%TO.P,Y1,4,Pin_4*%
%TO.N,/2B*%
X153340000Y-83236000D03*
%TD*%
D13*
%TO.P,UD2,1,Pin_1*%
%TO.N,GND*%
X140640000Y-74600000D03*
D14*
%TO.P,UD2,2,Pin_2*%
%TO.N,+5V*%
X143180000Y-74600000D03*
%TO.P,UD2,3,Pin_3*%
%TO.N,/1B*%
X145720000Y-74600000D03*
%TO.P,UD2,4,Pin_4*%
%TO.N,/1A*%
X148260000Y-74600000D03*
%TO.P,UD2,5,Pin_5*%
%TO.N,/2A*%
X150800000Y-74600000D03*
%TO.P,UD2,6,Pin_6*%
%TO.N,/2B*%
X153340000Y-74600000D03*
%TO.P,UD2,7,Pin_7*%
%TO.N,GND*%
X155880000Y-74600000D03*
%TO.P,UD2,8,Pin_8*%
%TO.N,/VMOT*%
X158420000Y-74600000D03*
%TD*%
D13*
%TO.P,UD1,1,Pin_1*%
%TO.N,/2*%
X158420000Y-61900000D03*
D14*
%TO.P,UD1,2,Pin_2*%
%TO.N,/\u002A3*%
X155880000Y-61900000D03*
%TO.P,UD1,3,Pin_3*%
%TO.N,/4*%
X153340000Y-61900000D03*
%TO.P,UD1,4,Pin_4*%
%TO.N,/\u002A5*%
X150800000Y-61900000D03*
%TO.P,UD1,5,Pin_5*%
%TO.N,Net-(UD1-Pin_5)*%
X148260000Y-61900000D03*
%TO.P,UD1,6,Pin_6*%
X145720000Y-61900000D03*
%TO.P,UD1,7,Pin_7*%
%TO.N,/\u002A6*%
X143180000Y-61900000D03*
%TO.P,UD1,8,Pin_8*%
%TO.N,/7*%
X140640000Y-61900000D03*
%TD*%
D17*
%TO.N,/VMOT*%
X159944000Y-76124000D02*
X158420000Y-74600000D01*
X159944000Y-79513620D02*
X159944000Y-76124000D01*
X134798000Y-76378000D02*
X133020000Y-74600000D01*
X134798000Y-79513620D02*
X134798000Y-76378000D01*
D18*
%TO.N,+5V*%
X143180000Y-76458000D02*
X143180000Y-74600000D01*
X121209000Y-91618000D02*
X114224000Y-84633000D01*
X139370000Y-80268000D02*
X143180000Y-76458000D01*
X138100000Y-94158000D02*
X139370000Y-92888000D01*
X139370000Y-92888000D02*
X139370000Y-80268000D01*
X114224000Y-84633000D02*
X114224000Y-80188000D01*
X114224000Y-80188000D02*
X117780000Y-76632000D01*
X117780000Y-76632000D02*
X117780000Y-74600000D01*
X138100000Y-94158000D02*
X135560000Y-91618000D01*
X135560000Y-91618000D02*
X121209000Y-91618000D01*
X138100000Y-94158000D02*
X138100000Y-97460000D01*
%TO.N,/13*%
X115240000Y-61900000D02*
X115240000Y-59360000D01*
X122098000Y-52502000D02*
X125654000Y-52502000D01*
X115240000Y-59360000D02*
X122098000Y-52502000D01*
X125654000Y-52502000D02*
X128956000Y-49200000D01*
%TO.N,/12*%
X117780000Y-61900000D02*
X117780000Y-59741000D01*
X117780000Y-59741000D02*
X119939000Y-57582000D01*
X119939000Y-57582000D02*
X123622000Y-57582000D01*
X123622000Y-57582000D02*
X131496000Y-49708000D01*
X131496000Y-49708000D02*
X131496000Y-49200000D01*
%TO.N,/7*%
X140640000Y-54153000D02*
X140640000Y-61900000D01*
X145720000Y-49200000D02*
X145593000Y-49200000D01*
X145593000Y-49200000D02*
X140640000Y-54153000D01*
%TO.N,/\u002A11*%
X133020000Y-55296000D02*
X134036000Y-54280000D01*
X134036000Y-54280000D02*
X134036000Y-49200000D01*
X133020000Y-61900000D02*
X133020000Y-55296000D01*
%TO.N,/4*%
X153340000Y-61900000D02*
X153340000Y-49200000D01*
%TO.N,/2*%
X158420000Y-61900000D02*
X158420000Y-49200000D01*
%TO.N,/\u002A6*%
X148260000Y-49200000D02*
X148260000Y-54280000D01*
X148260000Y-54280000D02*
X143180000Y-59360000D01*
X143180000Y-59360000D02*
X143180000Y-61900000D01*
%TO.N,/\u002A5*%
X150800000Y-61900000D02*
X147244000Y-65456000D01*
X150800000Y-61900000D02*
X150800000Y-49200000D01*
X147244000Y-65456000D02*
X128956000Y-65456000D01*
X128956000Y-65456000D02*
X125400000Y-61900000D01*
%TO.N,/\u002A3*%
X155880000Y-61900000D02*
X155880000Y-49200000D01*
%TO.N,Net-(LR1-Pin_5)*%
X122860000Y-61900000D02*
X120320000Y-61900000D01*
%TO.N,Net-(UD1-Pin_5)*%
X145720000Y-61900000D02*
X148260000Y-61900000D01*
D17*
%TO.N,/VMOT*%
X110318000Y-79934000D02*
X110318000Y-73680000D01*
X134798000Y-69774000D02*
X156134000Y-69774000D01*
X110318000Y-73680000D02*
X114224000Y-69774000D01*
X133020000Y-71552000D02*
X134798000Y-69774000D01*
X133020000Y-71552000D02*
X133020000Y-74600000D01*
X156134000Y-69774000D02*
X158420000Y-72060000D01*
X114224000Y-69774000D02*
X131242000Y-69774000D01*
X131242000Y-69774000D02*
X133020000Y-71552000D01*
X158420000Y-72060000D02*
X158420000Y-74600000D01*
D19*
%TO.N,/1B*%
X145720000Y-74727000D02*
X145720000Y-83617000D01*
%TO.N,/2A*%
X150800000Y-74727000D02*
X150800000Y-78537000D01*
X148260000Y-81077000D02*
X148260000Y-83236000D01*
X150800000Y-78537000D02*
X148260000Y-81077000D01*
%TO.N,/2B*%
X153340000Y-74727000D02*
X153340000Y-83617000D01*
%TO.N,/LR_1B*%
X120320000Y-74727000D02*
X120320000Y-83617000D01*
%TO.N,/LR_2A*%
X125400000Y-74727000D02*
X125400000Y-78664000D01*
X122860000Y-81204000D02*
X122860000Y-83236000D01*
X125400000Y-78664000D02*
X122860000Y-81204000D01*
%TO.N,/LR_2B*%
X127940000Y-74727000D02*
X127940000Y-83617000D01*
%TD*%
M02*
